<svg xmlns="http://www.w3.org/2000/svg" xmlns:xlink="http://www.w3.org/1999/xlink" viewBox="0 0 300 302.49"><defs><style>.cls-1{filter:url(#luminosity-noclip);}.cls-2{isolation:isolate;}.cls-11,.cls-12,.cls-13,.cls-14,.cls-15,.cls-16,.cls-20,.cls-26,.cls-3{opacity:0.5;}.cls-3,.cls-7{mix-blend-mode:multiply;}.cls-17,.cls-19,.cls-21,.cls-23,.cls-25,.cls-27,.cls-4,.cls-5,.cls-6{fill:none;stroke-miterlimit:10;}.cls-4{stroke:#3890b2;stroke-width:0.35px;}.cls-17,.cls-19,.cls-21,.cls-23,.cls-25,.cls-27,.cls-5{stroke-width:0.25px;}.cls-5{stroke:url(#Degradado_sin_nombre_53);}.cls-6{stroke:url(#Degradado_sin_nombre_53-2);}.cls-7{opacity:0.35;fill:url(#linear-gradient);}.cls-8{fill:url(#linear-gradient-2);}.cls-9{fill:url(#linear-gradient-3);}.cls-10{fill:url(#linear-gradient-4);}.cls-11{fill:url(#Degradado_sin_nombre_13);}.cls-12{fill:url(#Degradado_sin_nombre_44);}.cls-13{fill:url(#Degradado_sin_nombre_44-2);}.cls-14{fill:url(#Degradado_sin_nombre_44-3);}.cls-15{fill:url(#Degradado_sin_nombre_44-4);}.cls-16{fill:url(#Degradado_sin_nombre_44-5);}.cls-17{stroke:url(#Degradado_sin_nombre_17);}.cls-18,.cls-22,.cls-24{opacity:0.64;}.cls-18{fill:url(#Degradado_sin_nombre_15);}.cls-19{stroke:url(#Degradado_sin_nombre_17-2);}.cls-20{fill:url(#Degradado_sin_nombre_13-2);}.cls-21{stroke:url(#Degradado_sin_nombre_17-3);}.cls-22{fill:url(#Degradado_sin_nombre_15-2);}.cls-23{stroke:url(#Degradado_sin_nombre_17-4);}.cls-24{fill:url(#Degradado_sin_nombre_15-3);}.cls-25{stroke:url(#Degradado_sin_nombre_17-5);}.cls-26{fill:url(#Degradado_sin_nombre_13-3);}.cls-27{stroke:url(#Degradado_sin_nombre_17-6);}.cls-28{font-size:5.89px;fill:#fff;font-family:OpenSans, Open Sans;}.cls-29{fill:#ccc;}.cls-30{fill:#ea976a;}.cls-31{fill:#f2b879;}.cls-32{fill:url(#Degradado_sin_nombre_26);}.cls-33{fill:url(#Degradado_sin_nombre_13-4);}.cls-34{fill:url(#Degradado_sin_nombre_26-2);}.cls-35{fill:url(#Degradado_sin_nombre_13-5);}.cls-36{fill:url(#linear-gradient-5);}.cls-37{fill:url(#linear-gradient-6);}.cls-38{fill:url(#linear-gradient-7);}.cls-39{fill:url(#Degradado_sin_nombre_13-6);}.cls-40{fill:url(#Degradado_sin_nombre_17-7);}.cls-41{fill:#c9c9c9;}.cls-42{fill:url(#Degradado_sin_nombre_17-8);}.cls-43{fill:url(#Degradado_sin_nombre_13-7);}.cls-44{fill:url(#Degradado_sin_nombre_34);}.cls-45{fill:url(#Degradado_sin_nombre_17-9);}.cls-46{fill:url(#Degradado_sin_nombre_15-4);}.cls-47{fill:url(#Degradado_sin_nombre_37);}.cls-48{fill:#77459b;}.cls-49{fill:#5078ce;}.cls-50{fill:url(#Degradado_sin_nombre_13-8);}.cls-51{fill:#43375b;}.cls-52{fill:url(#Degradado_sin_nombre_49);}.cls-53{fill:url(#Degradado_sin_nombre_28);}.cls-54{fill:#7d7d7d;}.cls-55{fill:url(#Degradado_sin_nombre_28-2);}.cls-56{fill:url(#Degradado_sin_nombre_15-5);}.cls-57{fill:url(#Degradado_sin_nombre_31);}.cls-58{fill:url(#Degradado_sin_nombre_23);}.cls-59{fill:#aaa;}.cls-60{fill:url(#Degradado_sin_nombre_28-3);}.cls-61{fill:url(#Degradado_sin_nombre_28-4);}.cls-62{fill:url(#Degradado_sin_nombre_28-5);}.cls-63{fill:url(#Degradado_sin_nombre_15-6);}.cls-64{fill:url(#Degradado_sin_nombre_31-2);}.cls-65{fill:url(#Degradado_sin_nombre_23-2);}.cls-66{fill:url(#Degradado_sin_nombre_28-6);}.cls-67{fill:url(#Degradado_sin_nombre_28-7);}.cls-68{fill:url(#Degradado_sin_nombre_28-8);}.cls-69{fill:url(#Degradado_sin_nombre_15-7);}.cls-70{fill:url(#Degradado_sin_nombre_31-3);}.cls-71{fill:url(#Degradado_sin_nombre_23-3);}.cls-72{fill:url(#Degradado_sin_nombre_28-9);}.cls-73{fill:url(#Degradado_sin_nombre_28-10);}.cls-74{fill:url(#Degradado_sin_nombre_28-11);}.cls-75{fill:url(#Degradado_sin_nombre_15-8);}.cls-76{fill:url(#Degradado_sin_nombre_31-4);}.cls-77{fill:url(#Degradado_sin_nombre_23-4);}.cls-78{fill:url(#Degradado_sin_nombre_28-12);}.cls-79{fill:url(#Degradado_sin_nombre_28-13);}.cls-80{fill:url(#Degradado_sin_nombre_28-14);}.cls-81{fill:url(#Degradado_sin_nombre_15-9);}.cls-82{fill:url(#Degradado_sin_nombre_31-5);}.cls-83{fill:url(#Degradado_sin_nombre_23-5);}.cls-84{fill:url(#Degradado_sin_nombre_28-15);}.cls-85{fill:url(#Degradado_sin_nombre_28-16);}.cls-86{fill:url(#Degradado_sin_nombre_15-10);}.cls-87{fill:url(#Degradado_sin_nombre_17-10);}.cls-88{fill:#c1c1c1;}.cls-89{fill:url(#Degradado_sin_nombre_15-11);}.cls-90{fill:url(#Degradado_sin_nombre_17-11);}.cls-91{mask:url(#mask);}.cls-92{fill:url(#Degradado_sin_nombre_49-2);}.cls-93{fill:url(#Degradado_sin_nombre_47);}.cls-94{fill:#fecfae;}.cls-95{fill:#bcbcbc;}.cls-96{fill:url(#Degradado_sin_nombre_17-12);}.cls-97{fill:url(#Degradado_sin_nombre_23-6);}.cls-98{fill:url(#Degradado_sin_nombre_13-9);}.cls-99{fill:url(#Degradado_sin_nombre_15-12);}.cls-100{fill:url(#Degradado_sin_nombre_17-13);}.cls-101{fill:url(#Degradado_sin_nombre_23-7);}.cls-102{fill:url(#Degradado_sin_nombre_24);}.cls-103{fill:url(#Degradado_sin_nombre_23-8);}.cls-104{fill:url(#Degradado_sin_nombre_24-2);}.cls-105{fill:url(#Degradado_sin_nombre_23-9);}.cls-106{fill:url(#Degradado_sin_nombre_24-3);}.cls-107{fill:url(#Degradado_sin_nombre_22);}.cls-108{fill:url(#Degradado_sin_nombre_15-13);}.cls-109{fill:url(#Degradado_sin_nombre_17-14);}.cls-110{fill:#a86c43;}.cls-111{fill:url(#Degradado_sin_nombre_17-15);}.cls-112{fill:url(#Degradado_sin_nombre_17-16);}.cls-113{fill:url(#Degradado_sin_nombre_17-17);}.cls-114{fill:#f7f7f7;}.cls-115{fill:url(#Degradado_sin_nombre_46);}.cls-116{fill:url(#Degradado_sin_nombre_17-18);}.cls-117{fill:url(#Degradado_sin_nombre_49-3);}.cls-118{fill:url(#linear-gradient-8);}.cls-119{fill:url(#linear-gradient-9);}</style><linearGradient id="Degradado_sin_nombre_53" x1="24.87" y1="193.15" x2="246.96" y2="193.15" gradientUnits="userSpaceOnUse"><stop offset="0" stop-color="#41efcd"/><stop offset="1" stop-color="#4db3ff"/></linearGradient><linearGradient id="Degradado_sin_nombre_53-2" x1="29.82" y1="193.15" x2="242.01" y2="193.15" xlink:href="#Degradado_sin_nombre_53"/><linearGradient id="linear-gradient" x1="37.11" y1="212.5" x2="232.85" y2="212.5" gradientUnits="userSpaceOnUse"><stop offset="0" stop-color="#5078ce"/><stop offset="1" stop-color="#23629b"/></linearGradient><linearGradient id="linear-gradient-2" x1="37.11" y1="220.77" x2="134.98" y2="220.77" xlink:href="#linear-gradient"/><linearGradient id="linear-gradient-3" x1="37.11" y1="191.57" x2="232.85" y2="191.57" gradientUnits="userSpaceOnUse"><stop offset="0" stop-color="#5078ce"/><stop offset="1" stop-color="#131541"/></linearGradient><linearGradient id="linear-gradient-4" x1="134.98" y1="220.77" x2="232.85" y2="220.77" xlink:href="#linear-gradient"/><linearGradient id="Degradado_sin_nombre_13" x1="159.79" y1="60.89" x2="265.82" y2="60.89" gradientUnits="userSpaceOnUse"><stop offset="0" stop-color="#41efcd"/><stop offset="1" stop-color="#23629b"/></linearGradient><linearGradient id="Degradado_sin_nombre_44" x1="198.06" y1="137.21" x2="227.55" y2="86.13" gradientUnits="userSpaceOnUse"><stop offset="0" stop-color="#fff" stop-opacity="0"/><stop offset="0.37" stop-color="#fff" stop-opacity="0.01"/><stop offset="0.51" stop-color="#fff" stop-opacity="0.03"/><stop offset="0.6" stop-color="#fff" stop-opacity="0.08"/><stop offset="0.68" stop-color="#fff" stop-opacity="0.15"/><stop offset="0.75" stop-color="#fff" stop-opacity="0.23"/><stop offset="0.8" stop-color="#fff" stop-opacity="0.34"/><stop offset="0.86" stop-color="#fff" stop-opacity="0.47"/><stop offset="0.91" stop-color="#fff" stop-opacity="0.61"/><stop offset="0.95" stop-color="#fff" stop-opacity="0.78"/><stop offset="0.99" stop-color="#fff" stop-opacity="0.96"/><stop offset="1" stop-color="#fff"/></linearGradient><linearGradient id="Degradado_sin_nombre_44-2" x1="189.9" y1="141.86" x2="219.4" y2="90.78" xlink:href="#Degradado_sin_nombre_44"/><linearGradient id="Degradado_sin_nombre_44-3" x1="185.82" y1="188.91" x2="215.32" y2="137.82" xlink:href="#Degradado_sin_nombre_44"/><linearGradient id="Degradado_sin_nombre_44-4" x1="177.67" y1="209.09" x2="207.16" y2="158.01" xlink:href="#Degradado_sin_nombre_44"/><linearGradient id="Degradado_sin_nombre_44-5" x1="169.51" y1="214.71" x2="199.01" y2="163.62" xlink:href="#Degradado_sin_nombre_44"/><linearGradient id="Degradado_sin_nombre_17" x1="159.67" y1="60.89" x2="265.95" y2="60.89" gradientUnits="userSpaceOnUse"><stop offset="0" stop-color="#8affe9"/><stop offset="1" stop-color="#5ab8ff"/></linearGradient><linearGradient id="Degradado_sin_nombre_15" x1="151.64" y1="75.01" x2="257.66" y2="75.01" gradientUnits="userSpaceOnUse"><stop offset="0" stop-color="#ff558a"/><stop offset="1" stop-color="#237899"/></linearGradient><linearGradient id="Degradado_sin_nombre_17-2" x1="151.51" y1="75.01" x2="257.79" y2="75.01" xlink:href="#Degradado_sin_nombre_17"/><linearGradient id="Degradado_sin_nombre_13-2" x1="147.56" y1="103.27" x2="253.59" y2="103.27" xlink:href="#Degradado_sin_nombre_13"/><linearGradient id="Degradado_sin_nombre_17-3" x1="147.43" y1="103.27" x2="253.71" y2="103.27" xlink:href="#Degradado_sin_nombre_17"/><linearGradient id="Degradado_sin_nombre_15-2" x1="174.06" y1="157.41" x2="174.06" y2="65.6" xlink:href="#Degradado_sin_nombre_15"/><linearGradient id="Degradado_sin_nombre_17-4" x1="143.35" y1="111.5" x2="204.78" y2="111.5" xlink:href="#Degradado_sin_nombre_17"/><linearGradient id="Degradado_sin_nombre_15-3" x1="212.81" y1="143.29" x2="245.43" y2="143.29" xlink:href="#Degradado_sin_nombre_15"/><linearGradient id="Degradado_sin_nombre_17-5" x1="212.68" y1="143.29" x2="245.56" y2="143.29" xlink:href="#Degradado_sin_nombre_17"/><linearGradient id="Degradado_sin_nombre_13-3" x1="139.4" y1="150.37" x2="237.27" y2="150.37" xlink:href="#Degradado_sin_nombre_13"/><linearGradient id="Degradado_sin_nombre_17-6" x1="139.28" y1="150.37" x2="237.4" y2="150.37" xlink:href="#Degradado_sin_nombre_17"/><linearGradient id="Degradado_sin_nombre_26" x1="160.95" y1="215.69" x2="160.95" y2="186.03" gradientUnits="userSpaceOnUse"><stop offset="0" stop-color="#61ffe1"/><stop offset="1" stop-color="#2781c4"/></linearGradient><linearGradient id="Degradado_sin_nombre_13-4" x1="158.6" y1="215.69" x2="158.6" y2="186.02" xlink:href="#Degradado_sin_nombre_13"/><linearGradient id="Degradado_sin_nombre_26-2" x1="186.32" y1="201.04" x2="186.32" y2="171.38" xlink:href="#Degradado_sin_nombre_26"/><linearGradient id="Degradado_sin_nombre_13-5" x1="177.84" y1="196.82" x2="190.1" y2="175.59" xlink:href="#Degradado_sin_nombre_13"/><linearGradient id="linear-gradient-5" x1="90.47" y1="158.96" x2="189.07" y2="158.96" xlink:href="#linear-gradient-3"/><linearGradient id="linear-gradient-6" x1="90.47" y1="168.32" x2="159.78" y2="168.32" xlink:href="#linear-gradient-3"/><linearGradient id="linear-gradient-7" x1="159.78" y1="179.89" x2="189.07" y2="179.89" xlink:href="#linear-gradient-3"/><linearGradient id="Degradado_sin_nombre_13-6" x1="135.55" y1="149.52" x2="149.67" y2="149.52" xlink:href="#Degradado_sin_nombre_13"/><linearGradient id="Degradado_sin_nombre_17-7" x1="140.32" y1="155.98" x2="147.08" y2="144.28" xlink:href="#Degradado_sin_nombre_17"/><linearGradient id="Degradado_sin_nombre_17-8" x1="135.55" y1="155.53" x2="142.29" y2="155.53" xlink:href="#Degradado_sin_nombre_17"/><linearGradient id="Degradado_sin_nombre_13-7" x1="129.36" y1="145.73" x2="166.47" y2="145.73" xlink:href="#Degradado_sin_nombre_13"/><linearGradient id="Degradado_sin_nombre_34" x1="129.12" y1="128.98" x2="166.47" y2="128.98" gradientUnits="userSpaceOnUse"><stop offset="0" stop-color="#e03f79"/><stop offset="1" stop-color="#0b617c"/></linearGradient><linearGradient id="Degradado_sin_nombre_17-9" x1="128.65" y1="144.2" x2="165.76" y2="144.2" xlink:href="#Degradado_sin_nombre_17"/><linearGradient id="Degradado_sin_nombre_15-4" x1="128.65" y1="129.19" x2="165.76" y2="129.19" xlink:href="#Degradado_sin_nombre_15"/><linearGradient id="Degradado_sin_nombre_37" x1="129.73" y1="128.82" x2="164.5" y2="128.82" gradientUnits="userSpaceOnUse"><stop offset="0" stop-color="#563440"/><stop offset="1" stop-color="#2b5460"/></linearGradient><linearGradient id="Degradado_sin_nombre_13-8" x1="117.92" y1="201.92" x2="117.92" y2="199.19" xlink:href="#Degradado_sin_nombre_13"/><linearGradient id="Degradado_sin_nombre_49" x1="113.44" y1="184.17" x2="130.82" y2="184.17" gradientUnits="userSpaceOnUse"><stop offset="0" stop-color="#ff558a"/><stop offset="1" stop-color="#7457ce"/></linearGradient><linearGradient id="Degradado_sin_nombre_28" x1="125.37" y1="216.25" x2="127.4" y2="216.25" gradientUnits="userSpaceOnUse"><stop offset="0" stop-color="#c63066"/><stop offset="1" stop-color="#137391"/></linearGradient><linearGradient id="Degradado_sin_nombre_28-2" x1="125.98" y1="216.6" x2="128.02" y2="216.6" xlink:href="#Degradado_sin_nombre_28"/><linearGradient id="Degradado_sin_nombre_15-5" x1="126.48" y1="216.78" x2="128.29" y2="216.78" gradientTransform="translate(248.81 -3.4) rotate(59.32)" xlink:href="#Degradado_sin_nombre_15"/><linearGradient id="Degradado_sin_nombre_31" x1="125.26" y1="216.44" x2="128.01" y2="216.44" gradientUnits="userSpaceOnUse"><stop offset="0" stop-color="#80cfff"/><stop offset="1" stop-color="#abffef"/></linearGradient><linearGradient id="Degradado_sin_nombre_23" x1="125.68" y1="217.41" x2="127.05" y2="215.03" gradientUnits="userSpaceOnUse"><stop offset="0" stop-color="#5ab8ff"/><stop offset="1" stop-color="#8affe9"/></linearGradient><linearGradient id="Degradado_sin_nombre_28-3" x1="126.35" y1="214.5" x2="127.11" y2="214.5" xlink:href="#Degradado_sin_nombre_28"/><linearGradient id="Degradado_sin_nombre_28-4" x1="109.95" y1="221.87" x2="111.99" y2="221.87" xlink:href="#Degradado_sin_nombre_28"/><linearGradient id="Degradado_sin_nombre_28-5" x1="110.57" y1="222.22" x2="112.6" y2="222.22" xlink:href="#Degradado_sin_nombre_28"/><linearGradient id="Degradado_sin_nombre_15-6" x1="111.06" y1="222.39" x2="112.88" y2="222.39" gradientTransform="translate(246.07 12.6) rotate(59.31)" xlink:href="#Degradado_sin_nombre_15"/><linearGradient id="Degradado_sin_nombre_31-2" x1="109.84" y1="222.05" x2="112.6" y2="222.05" xlink:href="#Degradado_sin_nombre_31"/><linearGradient id="Degradado_sin_nombre_23-2" x1="110.26" y1="223.02" x2="111.64" y2="220.64" xlink:href="#Degradado_sin_nombre_23"/><linearGradient id="Degradado_sin_nombre_28-6" x1="110.94" y1="220.11" x2="111.7" y2="220.11" xlink:href="#Degradado_sin_nombre_28"/><linearGradient id="Degradado_sin_nombre_28-7" x1="95.7" y1="214.21" x2="97.73" y2="214.21" xlink:href="#Degradado_sin_nombre_28"/><linearGradient id="Degradado_sin_nombre_28-8" x1="96.31" y1="214.56" x2="98.34" y2="214.56" xlink:href="#Degradado_sin_nombre_28"/><linearGradient id="Degradado_sin_nombre_15-7" x1="96.81" y1="214.74" x2="98.62" y2="214.74" gradientTransform="translate(232.52 21.12) rotate(59.32)" xlink:href="#Degradado_sin_nombre_15"/><linearGradient id="Degradado_sin_nombre_31-3" x1="95.59" y1="214.4" x2="98.34" y2="214.4" xlink:href="#Degradado_sin_nombre_31"/><linearGradient id="Degradado_sin_nombre_23-3" x1="96" y1="215.37" x2="97.38" y2="212.99" xlink:href="#Degradado_sin_nombre_23"/><linearGradient id="Degradado_sin_nombre_28-9" x1="96.68" y1="212.46" x2="97.44" y2="212.46" xlink:href="#Degradado_sin_nombre_28"/><linearGradient id="Degradado_sin_nombre_28-10" x1="102.51" y1="204.46" x2="104.54" y2="204.46" xlink:href="#Degradado_sin_nombre_28"/><linearGradient id="Degradado_sin_nombre_28-11" x1="103.12" y1="204.81" x2="105.15" y2="204.81" xlink:href="#Degradado_sin_nombre_28"/><linearGradient id="Degradado_sin_nombre_15-8" x1="103.62" y1="204.99" x2="105.43" y2="204.99" gradientTransform="translate(227.45 10.48) rotate(59.31)" xlink:href="#Degradado_sin_nombre_15"/><linearGradient id="Degradado_sin_nombre_31-4" x1="102.4" y1="204.65" x2="105.15" y2="204.65" xlink:href="#Degradado_sin_nombre_31"/><linearGradient id="Degradado_sin_nombre_23-4" x1="102.81" y1="205.62" x2="104.19" y2="203.24" xlink:href="#Degradado_sin_nombre_23"/><linearGradient id="Degradado_sin_nombre_28-12" x1="103.49" y1="202.71" x2="104.25" y2="202.71" xlink:href="#Degradado_sin_nombre_28"/><linearGradient id="Degradado_sin_nombre_28-13" x1="121.07" y1="205.81" x2="123.11" y2="205.81" xlink:href="#Degradado_sin_nombre_28"/><linearGradient id="Degradado_sin_nombre_28-14" x1="121.68" y1="206.16" x2="123.72" y2="206.16" xlink:href="#Degradado_sin_nombre_28"/><linearGradient id="Degradado_sin_nombre_15-9" x1="122.18" y1="206.34" x2="124" y2="206.34" gradientTransform="translate(237.73 -4.81) rotate(59.32)" xlink:href="#Degradado_sin_nombre_15"/><linearGradient id="Degradado_sin_nombre_31-5" x1="120.96" y1="206" x2="123.71" y2="206" xlink:href="#Degradado_sin_nombre_31"/><linearGradient id="Degradado_sin_nombre_23-5" x1="121.38" y1="206.97" x2="122.75" y2="204.59" xlink:href="#Degradado_sin_nombre_23"/><linearGradient id="Degradado_sin_nombre_28-15" x1="122.05" y1="204.06" x2="122.81" y2="204.06" xlink:href="#Degradado_sin_nombre_28"/><linearGradient id="Degradado_sin_nombre_28-16" x1="95.71" y1="211.19" x2="128.41" y2="211.19" xlink:href="#Degradado_sin_nombre_28"/><linearGradient id="Degradado_sin_nombre_15-10" x1="95.71" y1="210.91" x2="128.41" y2="210.91" xlink:href="#Degradado_sin_nombre_15"/><linearGradient id="Degradado_sin_nombre_17-10" x1="110.91" y1="200.67" x2="114.03" y2="200.67" xlink:href="#Degradado_sin_nombre_17"/><linearGradient id="Degradado_sin_nombre_15-11" x1="91.33" y1="190.38" x2="136.28" y2="190.38" xlink:href="#Degradado_sin_nombre_15"/><linearGradient id="Degradado_sin_nombre_17-11" x1="94.38" y1="189.77" x2="134.24" y2="189.77" xlink:href="#Degradado_sin_nombre_17"/><filter id="luminosity-noclip" x="103.38" y="174.12" width="36.94" height="31.74" filterUnits="userSpaceOnUse" color-interpolation-filters="sRGB"><feFlood flood-color="#fff" result="bg"/><feBlend in="SourceGraphic" in2="bg"/></filter><mask id="mask" x="103.38" y="174.12" width="36.94" height="31.74" maskUnits="userSpaceOnUse"><path class="cls-1" d="M135.29,187.29l-2.58-1.49v5.93c.74-.3,1.49-.59,2.25-.86A2,2,0,0,0,135.29,187.29Z"/></mask><linearGradient id="Degradado_sin_nombre_49-2" x1="103.38" y1="189.99" x2="140.31" y2="189.99" xlink:href="#Degradado_sin_nombre_49"/><linearGradient id="Degradado_sin_nombre_47" x1="103.03" y1="166.8" x2="122.14" y2="166.8" gradientUnits="userSpaceOnUse"><stop offset="0" stop-color="#ff558a"/><stop offset="1" stop-color="#ffabb9"/></linearGradient><linearGradient id="Degradado_sin_nombre_17-12" x1="115.41" y1="186.65" x2="133.56" y2="186.65" xlink:href="#Degradado_sin_nombre_17"/><linearGradient id="Degradado_sin_nombre_23-6" x1="115.41" y1="186.03" x2="133.56" y2="186.03" xlink:href="#Degradado_sin_nombre_23"/><linearGradient id="Degradado_sin_nombre_13-9" x1="116.76" y1="196.3" x2="122.94" y2="196.3" xlink:href="#Degradado_sin_nombre_13"/><linearGradient id="Degradado_sin_nombre_15-12" x1="83.33" y1="178.2" x2="114.23" y2="178.2" xlink:href="#Degradado_sin_nombre_15"/><linearGradient id="Degradado_sin_nombre_17-13" x1="85.03" y1="178.18" x2="111.97" y2="178.18" xlink:href="#Degradado_sin_nombre_17"/><linearGradient id="Degradado_sin_nombre_23-7" x1="91.44" y1="160.67" x2="92.04" y2="159.64" xlink:href="#Degradado_sin_nombre_23"/><linearGradient id="Degradado_sin_nombre_24" x1="93.23" y1="161.29" x2="94.11" y2="161.29" gradientTransform="translate(184.57 -1.58) rotate(59.31)" gradientUnits="userSpaceOnUse"><stop offset="0" stop-color="#349ee0"/><stop offset="1" stop-color="#8affe9"/></linearGradient><linearGradient id="Degradado_sin_nombre_23-8" x1="91.51" y1="159.59" x2="92.2" y2="158.4" xlink:href="#Degradado_sin_nombre_23"/><linearGradient id="Degradado_sin_nombre_24-2" x1="93.59" y1="160.3" x2="94.6" y2="160.3" gradientTransform="translate(183.94 -2.42) rotate(59.32)" xlink:href="#Degradado_sin_nombre_24"/><linearGradient id="Degradado_sin_nombre_23-9" x1="91.72" y1="158.5" x2="92.52" y2="157.1" xlink:href="#Degradado_sin_nombre_23"/><linearGradient id="Degradado_sin_nombre_24-3" x1="94.14" y1="159.33" x2="95.33" y2="159.33" gradientTransform="translate(183.41 -3.45) rotate(59.32)" xlink:href="#Degradado_sin_nombre_24"/><linearGradient id="Degradado_sin_nombre_22" x1="88.16" y1="151.27" x2="100.54" y2="151.27" gradientUnits="userSpaceOnUse"><stop offset="0" stop-color="#ffa1c3"/><stop offset="1" stop-color="#28afc6"/></linearGradient><linearGradient id="Degradado_sin_nombre_15-13" x1="87.42" y1="151.67" x2="99.64" y2="151.67" xlink:href="#Degradado_sin_nombre_15"/><linearGradient id="Degradado_sin_nombre_17-14" x1="88.48" y1="151.67" x2="97.85" y2="151.67" xlink:href="#Degradado_sin_nombre_17"/><linearGradient id="Degradado_sin_nombre_17-15" x1="139.83" y1="165.33" x2="147.99" y2="165.33" xlink:href="#Degradado_sin_nombre_17"/><linearGradient id="Degradado_sin_nombre_17-16" x1="120.62" y1="162.14" x2="139.83" y2="162.14" xlink:href="#Degradado_sin_nombre_17"/><linearGradient id="Degradado_sin_nombre_17-17" x1="120.62" y1="159.55" x2="147.99" y2="159.55" xlink:href="#Degradado_sin_nombre_17"/><linearGradient id="Degradado_sin_nombre_46" x1="143.76" y1="168.58" x2="153.35" y2="168.58" gradientUnits="userSpaceOnUse"><stop offset="0" stop-color="#defff9"/><stop offset="1" stop-color="#bbe5ff"/></linearGradient><linearGradient id="Degradado_sin_nombre_17-18" x1="143.76" y1="168.58" x2="153.35" y2="168.58" xlink:href="#Degradado_sin_nombre_17"/><linearGradient id="Degradado_sin_nombre_49-3" x1="117.5" y1="160.9" x2="127.47" y2="160.9" xlink:href="#Degradado_sin_nombre_49"/><linearGradient id="linear-gradient-8" x1="174.14" y1="131.63" x2="215.69" y2="59.67" gradientUnits="userSpaceOnUse"><stop offset="0" stop-color="#5078ce"/><stop offset="0.01" stop-color="#507bd0" stop-opacity="0.96"/><stop offset="0.05" stop-color="#5287da" stop-opacity="0.76"/><stop offset="0.1" stop-color="#5493e3" stop-opacity="0.58"/><stop offset="0.16" stop-color="#569dea" stop-opacity="0.42"/><stop offset="0.22" stop-color="#57a6f1" stop-opacity="0.29"/><stop offset="0.29" stop-color="#58acf6" stop-opacity="0.18"/><stop offset="0.37" stop-color="#59b2fa" stop-opacity="0.1"/><stop offset="0.47" stop-color="#5ab5fd" stop-opacity="0.04"/><stop offset="0.61" stop-color="#5ab7ff" stop-opacity="0.01"/><stop offset="1" stop-color="#5ab8ff" stop-opacity="0"/></linearGradient><linearGradient id="linear-gradient-9" x1="165.77" y1="138.45" x2="283.29" y2="138.45" xlink:href="#linear-gradient-8"/></defs><title>bg-skill</title><g class="cls-2"><g id="Layer_1" data-name="Layer 1"><g class="cls-3"><line class="cls-4" x1="6.48" y1="198.48" x2="163.94" y2="107.48"/><line class="cls-4" x1="18.42" y1="205.37" x2="175.87" y2="114.37"/><line class="cls-4" x1="30.36" y1="212.26" x2="187.81" y2="121.26"/><line class="cls-4" x1="42.29" y1="219.15" x2="199.74" y2="128.15"/><line class="cls-4" x1="54.23" y1="226.04" x2="211.68" y2="135.04"/><line class="cls-4" x1="66.16" y1="232.93" x2="223.61" y2="141.93"/><line class="cls-4" x1="78.1" y1="239.83" x2="235.55" y2="148.82"/><line class="cls-4" x1="90.03" y1="246.72" x2="247.48" y2="155.71"/><line class="cls-4" x1="101.97" y1="253.61" x2="259.42" y2="162.61"/><line class="cls-4" x1="113.91" y1="260.5" x2="271.36" y2="169.5"/><line class="cls-4" x1="125.84" y1="267.39" x2="283.29" y2="176.39"/><line class="cls-4" x1="20.71" y1="176.91" x2="174.16" y2="265.5"/><line class="cls-4" x1="32.64" y1="170.06" x2="186.09" y2="258.66"/><line class="cls-4" x1="44.58" y1="163.22" x2="198.03" y2="251.81"/><line class="cls-4" x1="56.51" y1="156.38" x2="209.97" y2="244.97"/><line class="cls-4" x1="68.45" y1="149.53" x2="221.9" y2="238.12"/><line class="cls-4" x1="80.39" y1="142.69" x2="233.84" y2="231.28"/><line class="cls-4" x1="92.32" y1="135.84" x2="245.77" y2="224.44"/><line class="cls-4" x1="104.26" y1="129" x2="257.71" y2="217.59"/><line class="cls-4" x1="116.19" y1="122.16" x2="269.64" y2="210.75"/><line class="cls-4" x1="128.13" y1="115.31" x2="281.58" y2="203.91"/><line class="cls-4" x1="140.06" y1="108.47" x2="293.52" y2="197.06"/></g><polygon class="cls-5" points="25.12 193.15 135.91 129.19 246.71 193.15 135.91 257.12 25.12 193.15"/><polygon class="cls-6" points="30.82 193.15 135.91 132.48 241.01 193.15 135.91 253.83 30.82 193.15"/><polygon class="cls-7" points="37.11 212.5 134.98 156 232.85 212.5 134.98 269 37.11 212.5"/><polygon class="cls-8" points="37.11 191.57 37.11 193.46 134.98 249.96 134.98 248.08 37.11 191.57"/><polygon class="cls-9" points="37.11 191.57 134.98 135.07 232.85 191.57 134.98 248.08 37.11 191.57"/><polygon class="cls-10" points="134.98 248.08 232.85 191.57 232.85 193.46 134.98 249.96 134.98 248.08"/><polygon class="cls-11" points="265.82 75.02 159.79 13.8 159.79 46.76 265.82 107.98 265.82 75.02"/><polygon class="cls-12" points="265.82 108.22 159.79 47.01 159.79 115.12 265.82 176.34 265.82 108.22"/><polygon class="cls-13" points="257.67 112.87 151.63 51.66 151.63 119.77 257.67 180.99 257.67 112.87"/><polygon class="cls-14" points="253.59 159.91 147.56 98.7 147.56 166.81 253.59 228.03 253.59 159.91"/><polygon class="cls-15" points="245.43 180.1 139.4 118.88 139.4 187 245.43 248.22 245.43 180.1"/><polygon class="cls-16" points="237.28 185.72 131.25 124.5 131.25 192.61 237.28 253.83 237.28 185.72"/><polygon class="cls-17" points="265.82 75.02 159.79 13.8 159.79 46.76 265.82 107.98 265.82 75.02"/><polygon class="cls-18" points="257.67 98.56 151.63 37.34 151.63 51.47 257.67 112.68 257.67 98.56"/><polygon class="cls-19" points="257.67 98.56 151.63 37.34 151.63 51.47 257.67 112.68 257.67 98.56"/><polygon class="cls-20" points="253.59 105.62 147.56 44.41 147.56 100.91 253.59 162.13 253.59 105.62"/><polygon class="cls-21" points="253.59 105.62 147.56 44.41 147.56 100.91 253.59 162.13 253.59 105.62"/><polygon class="cls-22" points="204.65 100.91 143.48 65.6 143.48 122.1 204.65 157.41 204.65 100.91"/><polygon class="cls-23" points="204.65 100.91 143.48 65.6 143.48 122.1 204.65 157.41 204.65 100.91"/><polygon class="cls-24" points="245.43 124.46 212.81 105.62 212.81 162.13 245.43 180.96 245.43 124.46"/><polygon class="cls-25" points="245.43 124.46 212.81 105.62 212.81 162.13 245.43 180.96 245.43 124.46"/><polygon class="cls-26" points="237.28 171.57 139.4 115.04 139.4 129.17 237.28 185.69 237.28 171.57"/><polygon class="cls-27" points="237.28 171.57 139.4 115.04 139.4 129.17 237.28 185.69 237.28 171.57"/><text class="cls-28" transform="matrix(0.8, 0.47, 0, 1, 206.68, 50.29)">HEADER</text><text class="cls-28" transform="matrix(0.8, 0.47, 0, 1, 195.89, 69.71)">NAV</text><text class="cls-28" transform="matrix(0.8, 0.47, 0, 1, 194.15, 81.88)">BODY</text><text class="cls-28" transform="matrix(0.8, 0.47, 0, 1, 165.29, 89.91)">CONTENT</text><text class="cls-28" transform="matrix(0.8, 0.47, 0, 1, 219.64, 122.37)">SIDEBAR</text><text class="cls-28" transform="matrix(0.8, 0.47, 0, 1, 173.24, 142.24)">FOOTER</text><polygon class="cls-29" points="92.3 148.39 94.66 147.03 97.01 148.39 94.66 149.75 92.3 148.39"/><polygon class="cls-30" points="94.66 149.75 94.66 178.06 97.01 176.7 97.01 148.39 94.66 149.75"/><polygon class="cls-31" points="94.66 149.75 92.3 148.39 92.3 176.7 94.66 178.06 94.66 149.75"/><polygon class="cls-29" points="157.42 186.02 159.78 184.66 162.13 186.03 159.78 187.38 157.42 186.02"/><polygon class="cls-32" points="159.78 187.38 159.78 215.69 162.13 214.33 162.13 186.03 159.78 187.38"/><polygon class="cls-33" points="159.78 187.38 157.42 186.02 157.42 214.33 159.78 215.69 159.78 187.38"/><polygon class="cls-29" points="182.79 171.38 185.15 170.02 187.5 171.38 185.15 172.74 182.79 171.38"/><polygon class="cls-34" points="185.15 172.74 185.15 201.04 187.5 199.68 187.5 171.38 185.15 172.74"/><polygon class="cls-35" points="185.15 172.74 182.79 171.38 182.79 199.68 185.15 201.04 185.15 172.74"/><polygon class="cls-36" points="90.47 147.39 119.76 130.48 189.07 170.52 159.78 187.43 90.47 147.39"/><polygon class="cls-37" points="90.47 147.39 90.47 149.21 159.78 189.25 159.78 187.43 90.47 147.39"/><polygon class="cls-38" points="189.07 170.52 189.07 172.34 159.78 189.25 159.78 187.43 189.07 170.52"/><path class="cls-39" d="M135.55,154l4.67-2.69a4.16,4.16,0,0,0,2.08-3.6l.63-6.47,6.75,3.87v6.13a4.16,4.16,0,0,1-2.08,3.6l-5.29,3Z"/><path class="cls-40" d="M135.55,153.22l4.67-2.69a4.16,4.16,0,0,0,2.08-3.6v-5.39l6.75,3.87v5.39a4.16,4.16,0,0,1-2.08,3.6l-4.67,2.69Z"/><polygon class="cls-41" points="149.04 145.41 149.67 145.08 142.92 141.18 142.29 141.54 149.04 145.41"/><polygon class="cls-42" points="142.29 157.84 142.29 157.1 135.55 153.22 135.55 153.97 142.29 157.84"/><path class="cls-43" d="M160.7,151.63l5.06.73.71-.42v4.44a.65.65,0,0,1-.28.54h0l0,0,0,0-.78.45-.28-.28.06-.39-35.19-20.32a1.14,1.14,0,0,1-.57-1V134Z"/><path class="cls-44" d="M130.67,105.71,165.77,126a1.39,1.39,0,0,1,.69,1.2v24.77h0l-.71.42-5.06-.73L129.36,134V106.47a.89.89,0,0,1,0-.24l-.16.06-.11-.18.66-.39A.87.87,0,0,1,130.67,105.71Z"/><path class="cls-45" d="M165.76,152.36l-37.11-21.42v4.94a1.14,1.14,0,0,0,.57,1l35.54,20.52a.66.66,0,0,0,1-.57Z"/><path class="cls-46" d="M165.06,126.39,130,106.13a.88.88,0,0,0-1.32.76v24l37.11,21.42V127.59A1.39,1.39,0,0,0,165.06,126.39Z"/><polygon class="cls-47" points="164.5 127.22 129.73 107.18 129.73 130.43 164.5 150.46 164.5 127.22"/><path class="cls-48" d="M137.31,114l-3.81-2.21a.63.63,0,0,1-.27-.5h0c0-.19.12-.27.27-.19l3.81,2.21a.63.63,0,0,1,.27.5h0C137.58,114,137.46,114.07,137.31,114Z"/><path class="cls-48" d="M139.48,117l-3.81-2.21a.63.63,0,0,1-.27-.5h0c0-.19.12-.27.27-.19l3.81,2.21a.63.63,0,0,1,.27.5h0C139.75,117,139.63,117.1,139.48,117Z"/><path class="cls-48" d="M149.73,123l-3.81-2.21a.63.63,0,0,1-.27-.5h0c0-.19.12-.27.27-.19l3.81,2.21a.63.63,0,0,1,.27.5h0C150,123,149.88,123,149.73,123Z"/><path class="cls-49" d="M144.6,120l-3.81-2.21a.63.63,0,0,1-.27-.5h0c0-.19.12-.27.27-.19l3.81,2.21a.63.63,0,0,1,.27.5h0C144.87,120,144.75,120.06,144.6,120Z"/><path class="cls-48" d="M139.48,118.43l-3.81-2.21a.63.63,0,0,1-.27-.5h0c0-.19.12-.27.27-.19l3.81,2.21a.63.63,0,0,1,.27.5h0C139.75,118.43,139.63,118.51,139.48,118.43Z"/><path class="cls-48" d="M149.73,124.37l-3.81-2.21a.63.63,0,0,1-.27-.5h0c0-.19.12-.27.27-.19l3.81,2.21a.63.63,0,0,1,.27.5h0C150,124.37,149.88,124.46,149.73,124.37Z"/><path class="cls-49" d="M144.6,121.39l-3.81-2.21a.63.63,0,0,1-.27-.5h0c0-.19.12-.27.27-.19l3.81,2.21a.63.63,0,0,1,.27.5h0C144.87,121.4,144.75,121.48,144.6,121.39Z"/><path class="cls-48" d="M139.48,119.85l-3.81-2.21a.63.63,0,0,1-.27-.5h0c0-.19.12-.27.27-.19l3.81,2.21a.63.63,0,0,1,.27.5h0C139.75,119.85,139.63,119.93,139.48,119.85Z"/><path class="cls-48" d="M149.73,125.79l-3.81-2.21a.63.63,0,0,1-.27-.5h0c0-.19.12-.27.27-.19l3.81,2.21a.63.63,0,0,1,.27.5h0C150,125.79,149.88,125.88,149.73,125.79Z"/><path class="cls-49" d="M144.6,122.81l-3.81-2.21a.63.63,0,0,1-.27-.5h0c0-.19.12-.27.27-.19l3.81,2.21a.63.63,0,0,1,.27.5h0C144.87,122.82,144.75,122.9,144.6,122.81Z"/><path class="cls-48" d="M139.48,121.26l-3.81-2.21a.63.63,0,0,1-.27-.5h0c0-.19.12-.27.27-.19l3.81,2.21a.63.63,0,0,1,.27.5h0C139.75,121.27,139.63,121.35,139.48,121.26Z"/><path class="cls-48" d="M149.73,127.21,145.93,125a.63.63,0,0,1-.27-.5h0c0-.19.12-.27.27-.19l3.81,2.21a.63.63,0,0,1,.27.5h0C150,127.21,149.88,127.29,149.73,127.21Z"/><path class="cls-49" d="M144.6,124.23,140.79,122a.63.63,0,0,1-.27-.5h0c0-.19.12-.27.27-.19l3.81,2.21a.63.63,0,0,1,.27.5h0C144.87,124.23,144.75,124.32,144.6,124.23Z"/><path class="cls-48" d="M139.48,126.43l-3.81-2.21a.63.63,0,0,1-.27-.5h0c0-.19.12-.27.27-.19l3.81,2.21a.63.63,0,0,1,.27.5h0C139.75,126.43,139.63,126.51,139.48,126.43Z"/><path class="cls-49" d="M144.6,129.39l-3.81-2.21a.63.63,0,0,1-.27-.5h0c0-.19.12-.27.27-.19l3.81,2.21a.63.63,0,0,1,.27.5h0C144.87,129.4,144.75,129.48,144.6,129.39Z"/><path class="cls-48" d="M139.48,128.24,135.68,126a.63.63,0,0,1-.27-.5h0c0-.19.12-.27.27-.19l3.81,2.21a.63.63,0,0,1,.27.5h0C139.75,128.24,139.63,128.32,139.48,128.24Z"/><path class="cls-49" d="M144.6,131.21,140.79,129a.63.63,0,0,1-.27-.5h0c0-.19.12-.27.27-.19l3.81,2.21a.63.63,0,0,1,.27.5h0C144.87,131.21,144.75,131.29,144.6,131.21Z"/><path class="cls-48" d="M141.37,130.83l-3.81-2.21a.63.63,0,0,1-.27-.5h0c0-.19.12-.27.27-.19l3.81,2.21a.63.63,0,0,1,.27.5h0C141.64,130.83,141.51,130.91,141.37,130.83Z"/><path class="cls-49" d="M146.48,133.79l-3.81-2.21a.63.63,0,0,1-.27-.5h0c0-.19.12-.27.27-.19l3.81,2.21a.63.63,0,0,1,.27.5h0C146.75,133.79,146.63,133.88,146.48,133.79Z"/><path class="cls-48" d="M143.25,133.41l-3.81-2.21a.63.63,0,0,1-.27-.5h0c0-.19.12-.27.27-.19l3.81,2.21a.63.63,0,0,1,.27.5h0C143.52,133.42,143.4,133.5,143.25,133.41Z"/><path class="cls-49" d="M148.37,136.38l-3.81-2.21a.63.63,0,0,1-.27-.5h0c0-.19.12-.27.27-.19l3.81,2.21a.63.63,0,0,1,.27.5h0C148.63,136.38,148.51,136.47,148.37,136.38Z"/><path class="cls-48" d="M145.13,136l-3.81-2.21a.63.63,0,0,1-.27-.5h0c0-.19.12-.27.27-.19l3.81,2.21a.63.63,0,0,1,.27.5h0C145.4,136,145.28,136.09,145.13,136Z"/><path class="cls-49" d="M150.25,139l-3.81-2.21a.63.63,0,0,1-.27-.5h0c0-.19.12-.27.27-.19l3.81,2.21a.63.63,0,0,1,.27.5h0C150.52,139,150.4,139.05,150.25,139Z"/><path class="cls-48" d="M158.94,126.52l-3.81-2.21a.63.63,0,0,1-.27-.5h0c0-.19.12-.27.27-.19l3.81,2.21a.63.63,0,0,1,.27.5h0C159.21,126.53,159.09,126.61,158.94,126.52Z"/><path class="cls-49" d="M153.5,123.37l-14.78-8.57a.63.63,0,0,1-.27-.5h0c0-.19.12-.27.27-.19l14.78,8.57a.63.63,0,0,1,.27.5h0C153.77,123.37,153.64,123.45,153.5,123.37Z"/><path class="cls-48" d="M137.31,121.68l-3.81-2.21a.63.63,0,0,1-.27-.5h0c0-.19.12-.27.27-.19l3.81,2.21a.63.63,0,0,1,.27.5h0C137.58,121.68,137.46,121.76,137.31,121.68Z"/><path class="cls-48" d="M158.94,134.22,155.13,132a.63.63,0,0,1-.27-.5h0c0-.19.12-.27.27-.19l3.81,2.21a.63.63,0,0,1,.27.5h0C159.21,134.22,159.09,134.31,158.94,134.22Z"/><path class="cls-49" d="M153.5,131.06l-14.78-8.57a.63.63,0,0,1-.27-.5h0c0-.19.12-.27.27-.19l14.78,8.57a.63.63,0,0,1,.27.5h0C153.77,131.07,153.64,131.15,153.5,131.06Z"/><path class="cls-48" d="M137.31,123.35l-3.81-2.21a.63.63,0,0,1-.27-.5h0c0-.19.12-.27.27-.19l3.81,2.21a.63.63,0,0,1,.27.5h0C137.58,123.35,137.46,123.43,137.31,123.35Z"/><path class="cls-49" d="M153.5,132.73l-14.78-8.57a.63.63,0,0,1-.27-.5h0c0-.19.12-.27.27-.19l14.78,8.57a.63.63,0,0,1,.27.5h0C153.77,132.74,153.64,132.82,153.5,132.73Z"/><path class="cls-48" d="M137.31,133.46l-3.81-2.21a.63.63,0,0,1-.27-.5h0c0-.19.12-.27.27-.19l3.81,2.21a.63.63,0,0,1,.27.5h0C137.58,133.46,137.46,133.55,137.31,133.46Z"/><path class="cls-49" d="M153.5,142.85l-14.78-8.57a.63.63,0,0,1-.27-.5h0c0-.19.12-.27.27-.19l14.78,8.57a.63.63,0,0,1,.27.5h0C153.77,142.85,153.64,142.94,153.5,142.85Z"/><path class="cls-50" d="M116.79,201l.13-.69,1.35-.94.81-.15s0,1.53,0,1.57a5.25,5.25,0,0,1-.44.81l-1.11.35-.67-.43-.09-.4Z"/><path class="cls-51" d="M125.83,197.52a4.36,4.36,0,0,0-.8,4.29c.2,1,1.55,1.41,2.48,1.22a16.82,16.82,0,0,0,4.75-2.27,44.45,44.45,0,0,0,4.49-2.68c1.08-1.06-.37-2.77-6.91-1.8C129.26,196.39,125.83,197.52,125.83,197.52Z"/><path class="cls-52" d="M123.32,168.54c-1.39.48-6.49,2.9-9.88,4.52v11.32a118.68,118.68,0,0,0,10.93-6.09v2.77c0,1.12.79,15.25.79,17.3,0,2.28,5,2.42,5-.7,0-.93.63-19.07.63-23.92S125.6,167.74,123.32,168.54Z"/><path class="cls-53" d="M125.61,215.76c.34-.57.92-.86,1.28-.65l.51.28-1.25,2.07-.5-.27C125.29,217,125.27,216.33,125.61,215.76Z"/><ellipse class="cls-54" cx="126.77" cy="216.43" rx="1.21" ry="0.77" transform="translate(-124.05 214.99) rotate(-59.31)"/><path class="cls-55" d="M126.22,216.11c.34-.57.92-.86,1.28-.65l.51.28-1.25,2.07-.5-.28C125.9,217.33,125.88,216.68,126.22,216.11Z"/><ellipse class="cls-56" cx="127.39" cy="216.78" rx="1.21" ry="0.77" transform="translate(-124.05 215.7) rotate(-59.32)"/><path class="cls-57" d="M127.8,215.49l-.11,0-.79-.44c-.39-.23-1,.08-1.38.69s-.34,1.31.05,1.54l.8.44,0,.05.29.17.06,0c-.39-.23-.42-.92-.05-1.54s1-.93,1.37-.7v-.06Z"/><path class="cls-58" d="M126.57,216.32c.38-.64,1-1,1.44-.73l-1.17-.64c-.41-.25-1.06.08-1.44.73s-.36,1.37.05,1.61l1.17.64C126.21,217.68,126.19,217,126.57,216.32Z"/><path class="cls-59" d="M126.35,214.5v.73a.24.24,0,0,0,.12.21.52.52,0,0,0,.52,0,.24.24,0,0,0,.12-.21v-.73Z"/><path class="cls-60" d="M127,214.7h0a.24.24,0,0,0,0-.41h0a.52.52,0,0,0-.52,0h0a.24.24,0,0,0,0,.41h0A.52.52,0,0,0,127,214.7Z"/><path class="cls-61" d="M110.2,221.37c.34-.57.92-.86,1.28-.65l.51.28-1.25,2.07-.5-.28C109.88,222.59,109.86,221.94,110.2,221.37Z"/><ellipse class="cls-54" cx="111.36" cy="222.04" rx="1.21" ry="0.77" transform="translate(-136.42 204.5) rotate(-59.32)"/><path class="cls-62" d="M110.81,221.72c.34-.57.92-.86,1.28-.65l.51.28-1.25,2.07-.5-.27C110.49,222.94,110.47,222.29,110.81,221.72Z"/><ellipse class="cls-63" cx="111.97" cy="222.39" rx="1.21" ry="0.77" transform="translate(-136.42 205.18) rotate(-59.31)"/><path class="cls-64" d="M112.39,221.1l-.11,0-.79-.44c-.39-.23-1,.08-1.38.69s-.34,1.31.05,1.54l.8.44,0,.05.29.17.06,0c-.39-.23-.42-.93-.05-1.54s1-.93,1.37-.7v-.06Z"/><path class="cls-65" d="M111.16,221.93c.38-.64,1-1,1.44-.73l-1.17-.64c-.41-.25-1.06.08-1.44.73s-.36,1.37.05,1.61l1.17.64C110.8,223.3,110.78,222.57,111.16,221.93Z"/><path class="cls-59" d="M110.94,220.11v.73a.24.24,0,0,0,.12.21.52.52,0,0,0,.52,0,.24.24,0,0,0,.12-.21v-.73Z"/><path class="cls-66" d="M111.58,220.31h0a.24.24,0,0,0,0-.41h0a.52.52,0,0,0-.52,0h0a.24.24,0,0,0,0,.41h0A.52.52,0,0,0,111.58,220.31Z"/><path class="cls-67" d="M95.94,213.72c.34-.57.92-.86,1.28-.65l.51.28-1.25,2.07-.5-.28C95.62,214.94,95.6,214.29,95.94,213.72Z"/><ellipse class="cls-54" cx="97.1" cy="214.39" rx="1.21" ry="0.77" transform="matrix(0.51, -0.86, 0.86, 0.51, -136.82, 188.48)"/><path class="cls-68" d="M96.55,214.07c.34-.57.92-.86,1.28-.65l.51.28-1.25,2.07-.5-.28C96.23,215.29,96.21,214.64,96.55,214.07Z"/><ellipse class="cls-69" cx="97.71" cy="214.74" rx="1.21" ry="0.77" transform="translate(-136.82 189.19) rotate(-59.32)"/><path class="cls-70" d="M98.13,213.45l-.11,0-.79-.44c-.39-.23-1,.08-1.38.69s-.34,1.31.05,1.54l.8.44,0,.05.29.17.06,0c-.39-.23-.42-.93-.05-1.54s1-.93,1.37-.7v-.06Z"/><path class="cls-71" d="M96.9,214.28c.38-.64,1-1,1.44-.73l-1.17-.64c-.41-.25-1.06.08-1.44.73s-.36,1.37.05,1.61l1.17.64C96.54,215.65,96.52,214.92,96.9,214.28Z"/><path class="cls-59" d="M96.68,212.46v.73a.24.24,0,0,0,.12.21.52.52,0,0,0,.52,0,.24.24,0,0,0,.12-.21v-.73Z"/><path class="cls-72" d="M97.32,212.66h0a.24.24,0,0,0,0-.41h0a.52.52,0,0,0-.52,0h0a.24.24,0,0,0,0,.41h0A.52.52,0,0,0,97.32,212.66Z"/><path class="cls-73" d="M102.75,204c.34-.57.92-.86,1.28-.65l.51.28-1.25,2.07-.5-.28C102.43,205.18,102.41,204.54,102.75,204Z"/><ellipse class="cls-54" cx="103.91" cy="204.64" rx="1.21" ry="0.77" transform="translate(-125.1 189.58) rotate(-59.32)"/><path class="cls-74" d="M103.36,204.32c.34-.57.92-.86,1.28-.65l.51.28L103.91,206l-.5-.27C103,205.53,103,204.89,103.36,204.32Z"/><ellipse class="cls-75" cx="104.52" cy="204.99" rx="1.21" ry="0.77" transform="translate(-125.1 190.25) rotate(-59.31)"/><path class="cls-76" d="M104.94,203.69l-.11,0-.79-.44c-.39-.23-1,.08-1.38.69s-.34,1.31.05,1.54l.8.44,0,.05.29.17.06,0c-.39-.23-.42-.92-.05-1.54s1-.93,1.37-.7v-.06Z"/><path class="cls-77" d="M103.71,204.52c.38-.64,1-1,1.44-.73l-1.17-.64c-.41-.25-1.06.08-1.44.73s-.36,1.37.05,1.61l1.17.64C103.35,205.89,103.33,205.17,103.71,204.52Z"/><path class="cls-59" d="M103.49,202.71v.73a.24.24,0,0,0,.12.21.52.52,0,0,0,.52,0,.24.24,0,0,0,.12-.21v-.73Z"/><path class="cls-78" d="M104.13,202.91h0a.24.24,0,0,0,0-.41h0a.52.52,0,0,0-.52,0h0a.24.24,0,0,0,0,.41h0A.52.52,0,0,0,104.13,202.91Z"/><path class="cls-79" d="M121.31,205.32c.34-.57.92-.86,1.28-.65l.51.28L121.86,207l-.5-.28C121,206.53,121,205.89,121.31,205.32Z"/><ellipse class="cls-54" cx="122.48" cy="205.99" rx="1.21" ry="0.77" transform="translate(-117.17 206.18) rotate(-59.31)"/><path class="cls-80" d="M121.92,205.67c.34-.57.92-.86,1.28-.65l.51.28-1.25,2.07-.5-.28C121.6,206.88,121.58,206.24,121.92,205.67Z"/><ellipse class="cls-81" cx="123.09" cy="206.34" rx="1.21" ry="0.77" transform="translate(-117.17 206.9) rotate(-59.32)"/><path class="cls-82" d="M123.5,205l-.11,0-.79-.44c-.39-.23-1,.08-1.38.69s-.34,1.31.05,1.54l.8.44,0,.05.29.17.06,0c-.39-.23-.42-.93-.05-1.54s1-.93,1.37-.7v-.06Z"/><path class="cls-83" d="M122.28,205.87c.38-.64,1-1,1.44-.73l-1.17-.64c-.41-.25-1.06.08-1.44.73s-.36,1.37.05,1.61l1.17.64C121.92,207.24,121.89,206.52,122.28,205.87Z"/><path class="cls-59" d="M122.05,204.06v.73a.24.24,0,0,0,.12.21.52.52,0,0,0,.52,0,.24.24,0,0,0,.12-.21v-.73Z"/><path class="cls-84" d="M122.7,204.26h0a.24.24,0,0,0,0-.41h0a.52.52,0,0,0-.52,0h0a.24.24,0,0,0,0,.41h0A.52.52,0,0,0,122.7,204.26Z"/><g class="cls-2"><path class="cls-85" d="M105.37,202.18l7.23,7.14,9.08-6.21a1.79,1.79,0,0,1,1.85-.11h0a.66.66,0,0,1,.06,1.12l-9.08,6.21,13.4,3.6a.68.68,0,0,1,.38,1h0a1,1,0,0,1-1.07.39l-13.66-3.67-1,8a1.33,1.33,0,0,1-1.41,1.16h0a1.18,1.18,0,0,1-1.09-1.32l1-8-14.28,1.75a1,1,0,0,1-1-.61h0a.64.64,0,0,1,.51-.87l14.19-1.74-7.5-7.41a.58.58,0,0,1,.22-1h0A2.12,2.12,0,0,1,105.37,202.18Z"/></g><path class="cls-86" d="M105.37,201.9,112.6,209l9.08-6.21a1.79,1.79,0,0,1,1.85-.11h0a.66.66,0,0,1,.06,1.12l-9.08,6.21,13.4,3.6a.68.68,0,0,1,.38,1h0a1,1,0,0,1-1.07.39l-13.66-3.67-1,8a1.33,1.33,0,0,1-1.41,1.16h0a1.18,1.18,0,0,1-1.09-1.32l1-8L96.79,213a1,1,0,0,1-1-.61h0a.64.64,0,0,1,.51-.87l14.19-1.74-7.5-7.41a.58.58,0,0,1,.22-1h0A2.12,2.12,0,0,1,105.37,201.9Z"/><path class="cls-87" d="M110.91,190.71v18.78a1,1,0,0,0,.49.84,2.14,2.14,0,0,0,2.14,0,1,1,0,0,0,.49-.84V190.71Z"/><path class="cls-88" d="M113.54,191.56h0a1,1,0,0,0,0-1.68h0a2.14,2.14,0,0,0-2.14,0h0a1,1,0,0,0,0,1.68h0A2.14,2.14,0,0,0,113.54,191.56Z"/><path class="cls-89" d="M135,190.88a69.51,69.51,0,0,0-19.1,10.79,10,10,0,0,1-11.18.78l-11.08-6.4a4.53,4.53,0,0,1-.53-7.49,68.22,68.22,0,0,1,20.56-11.3,6.63,6.63,0,0,1,5.32.59l16.34,9.43A2,2,0,0,1,135,190.88Z"/><path class="cls-90" d="M133.62,187.69a1.24,1.24,0,0,1-.26,2.26,53.13,53.13,0,0,0-17.29,9.52,9.32,9.32,0,0,1-10.41.72l-9.16-5.34a4.22,4.22,0,0,1-.49-7,53.37,53.37,0,0,1,17-9.44,7,7,0,0,1,5.69.6Z"/><path class="cls-51" d="M135.32,203.34a4.36,4.36,0,0,0-.8,4.29c.2,1,1.55,1.41,2.48,1.22a16.83,16.83,0,0,0,4.75-2.27,44.45,44.45,0,0,0,4.49-2.68c1.08-1.06-.37-2.77-6.91-1.8C138.76,202.21,135.32,203.34,135.32,203.34Z"/><g class="cls-91"><path class="cls-92" d="M119.13,179.18l13.69-4.83c2.28-.8,7.5.36,7.5,5.21s-.63,23-.63,23.92c0,3.12-5,3-5,.7,0-2.05-.79-16.18-.79-17.3V184.1s-10.39,6.6-16.2,8.15-16.25-1.36-14-11.25S119.13,179.18,119.13,179.18Z"/></g><path class="cls-93" d="M116.09,151.69c-1.26,1.14-6-1.54-5.88-3.4-1.15-.45-2.64-1.14-4-.71-2.77.85-2.36,5.12-2.62,7.4-.62,5.35-.21,17.65-.51,26.12,0,2.63,6.27,5.05,10,5.05s7.59-2.91,7.57-4.08-.37-12.75.5-16,1.64-8.69.29-10.34A22,22,0,0,0,116.09,151.69Z"/><path class="cls-94" d="M122.05,135.54c.89,2,0,3,.09,4.43,0,1.27,1,6.6-1.56,7.17a8.31,8.31,0,0,1-3,.19l-1.54,4.36c-.41,1-6.36.09-5.88-2.84l.29-2.57c-1.34-.62-3.81-2.83-3.81-7.21s4.67-7.75,8.87-7.75S121.81,135,122.05,135.54Z"/><polygon class="cls-95" points="119.13 188.71 122.57 186.72 123.18 187.08 119.73 189.07 119.13 188.71"/><path class="cls-96" d="M116.12,189.13l13-7.48a3.69,3.69,0,0,1,3.69,0h0a1.59,1.59,0,0,1,0,2.76l-12.42,7.17a4.22,4.22,0,0,1-4.22,0h0A1.41,1.41,0,0,1,116.12,189.13Z"/><path class="cls-97" d="M116.12,188.51l13-7.48a3.69,3.69,0,0,1,3.69,0h0a1.59,1.59,0,0,1,0,2.76L120.34,191a4.22,4.22,0,0,1-4.22,0h0A1.41,1.41,0,0,1,116.12,188.51Z"/><path class="cls-98" d="M119.41,192s-.77,7.91-.87,8.91-1.79.84-1.75.06c-.29,1.15,1.59,2,3.26,1.3a3.3,3.3,0,0,0,1.88-2.73l1-9.44Z"/><path class="cls-99" d="M105.44,165.22l6.9,15.93a23,23,0,0,1,.63,16.64l-1.09,3.15a4.22,4.22,0,0,1-6.1,2.27l-13.55-7.82a6.68,6.68,0,0,1-3-8l1-2.77A23,23,0,0,0,89.59,168L83.4,153.73a.79.79,0,0,1,1.24-.91,48.87,48.87,0,0,0,17.69,9.64A5,5,0,0,1,105.44,165.22Z"/><path class="cls-100" d="M104.36,166.7l5.95,14a20.83,20.83,0,0,1,.55,14.86l-1,2.81a3.68,3.68,0,0,1-5.35,2l-11.88-7a6,6,0,0,1-2.6-7.11l.84-2.47A20.83,20.83,0,0,0,90.36,169L85.1,156.58a.79.79,0,0,1,1.24-.91,42.77,42.77,0,0,0,15,8.25A5,5,0,0,1,104.36,166.7Z"/><path class="cls-101" d="M89.79,159c.17-.28.44-.42.62-.31L94,160.79l-.6,1-3.56-2.08C89.64,159.6,89.62,159.29,89.79,159Z"/><ellipse class="cls-102" cx="93.67" cy="161.29" rx="0.59" ry="0.37" transform="translate(-92.83 159.53) rotate(-59.31)"/><path class="cls-103" d="M89.61,157.67c.19-.32.51-.48.72-.36l4.12,2.41-.7,1.16-4.11-2.4C89.43,158.36,89.42,158,89.61,157.67Z"/><ellipse class="cls-104" cx="94.09" cy="160.3" rx="0.68" ry="0.43" transform="translate(-91.78 159.42) rotate(-59.32)"/><path class="cls-105" d="M89.49,156.26c.22-.38.6-.57.84-.42l4.82,2.82L94.33,160l-4.81-2.81C89.28,157.06,89.27,156.63,89.49,156.26Z"/><ellipse class="cls-106" cx="94.73" cy="159.33" rx="0.79" ry="0.51" transform="translate(-90.63 159.49) rotate(-59.32)"/><path class="cls-107" d="M98.32,147.34a28.66,28.66,0,0,1-7.63-4,1.47,1.47,0,0,0-1.66-.1h0l-.87.49.2.15h.09a1.47,1.47,0,0,0-.13.62v7.33a3.35,3.35,0,0,0,1,2.39,23.77,23.77,0,0,0,8.17,4.84,2.25,2.25,0,0,0,1.05.14l-.12.16.11.06.75-.43h0a2.22,2.22,0,0,0,1.28-2V150.5A3.36,3.36,0,0,0,98.32,147.34Z"/><path class="cls-108" d="M88.41,154.77a23.77,23.77,0,0,0,8.17,4.84,2.24,2.24,0,0,0,3.06-2.08V151a3.36,3.36,0,0,0-2.22-3.15,28.66,28.66,0,0,1-7.63-4,1.47,1.47,0,0,0-2.38,1.16v7.33A3.35,3.35,0,0,0,88.41,154.77Z"/><path class="cls-109" d="M89.24,154a18.2,18.2,0,0,0,6.26,3.71,1.72,1.72,0,0,0,2.35-1.59v-5a2.57,2.57,0,0,0-1.7-2.41,22,22,0,0,1-5.84-3,1.13,1.13,0,0,0-1.82.89v5.62A2.57,2.57,0,0,0,89.24,154Z"/><path class="cls-110" d="M118.37,141.08c-.69-.41-2.34,1.64-.21,3.49a2.65,2.65,0,0,1-.79,1.88c-.53.59.45.65-1,1.37s-3.94.22-4.43.42c0-.5-.85-.24-1.58-1.67-1-1.3-2.35-1.31-3.5-4a7,7,0,0,1-.81-3,3.62,3.62,0,0,0-.35,1.93s-1.45-4.26,2-7a3.46,3.46,0,0,0-2.11,1,5.25,5.25,0,0,1,3.58-2.3c1.36-.61,1.1-1.65,3.94-2.09s2.7-2.39,2.24-3.18c0,0,1.72,1.35,1.59,2.48a3.92,3.92,0,0,0-.47-4.12,5.06,5.06,0,0,1,2.5,4.95,5.75,5.75,0,0,0,.22-2.92c.65.21,4.25,4.89,3.07,7.78s-3.78,2.77-3.71,3.74S118.37,141.08,118.37,141.08Z"/><polygon class="cls-111" points="139.83 167.91 139.83 167.45 147.99 162.74 147.99 163.2 139.83 167.91"/><polygon class="cls-112" points="139.83 167.91 120.62 156.83 120.62 156.37 139.83 167.45 139.83 167.91"/><polygon class="cls-113" points="120.62 156.37 128.77 151.66 147.99 162.74 139.83 167.45 120.62 156.37"/><polygon class="cls-114" points="130.25 153.81 128.85 153 129.28 152.75 130.68 153.55 130.25 153.81"/><polygon class="cls-114" points="132.13 154.89 130.73 154.08 131.16 153.83 132.56 154.64 132.13 154.89"/><polygon class="cls-114" points="134.01 155.97 132.61 155.17 133.05 154.92 134.44 155.72 134.01 155.97"/><polygon class="cls-114" points="135.89 157.06 134.49 156.25 134.93 156 136.33 156.81 135.89 157.06"/><polygon class="cls-114" points="137.77 158.15 136.37 157.34 136.81 157.09 138.21 157.89 137.77 158.15"/><polygon class="cls-114" points="139.65 159.23 138.26 158.43 138.69 158.17 140.09 158.98 139.65 159.23"/><polygon class="cls-114" points="141.54 160.32 140.14 159.51 140.57 159.26 141.97 160.06 141.54 160.32"/><polygon class="cls-114" points="143.42 161.4 142.02 160.59 142.46 160.34 143.85 161.15 143.42 161.4"/><polygon class="cls-114" points="128.85 154.61 127.45 153.81 128.52 153.19 129.92 153.99 128.85 154.61"/><polygon class="cls-114" points="130.73 155.7 129.33 154.89 130.41 154.27 131.8 155.08 130.73 155.7"/><polygon class="cls-114" points="132.61 156.78 131.22 155.98 132.29 155.36 133.69 156.16 132.61 156.78"/><polygon class="cls-114" points="134.5 157.87 133.1 157.06 134.17 156.44 135.57 157.25 134.5 157.87"/><polygon class="cls-114" points="136.38 158.95 134.98 158.15 136.05 157.53 137.45 158.33 136.38 158.95"/><polygon class="cls-114" points="138.26 160.04 136.86 159.23 137.93 158.61 139.33 159.42 138.26 160.04"/><polygon class="cls-114" points="140.14 161.12 138.74 160.32 139.81 159.7 141.21 160.5 140.14 161.12"/><polygon class="cls-114" points="142.02 162.21 140.62 161.4 141.7 160.78 143.09 161.59 142.02 162.21"/><polygon class="cls-114" points="127.28 155.52 125.88 154.72 126.95 154.1 128.35 154.9 127.28 155.52"/><polygon class="cls-114" points="129.16 156.61 127.76 155.8 128.84 155.18 130.23 155.99 129.16 156.61"/><polygon class="cls-114" points="131.04 157.69 129.65 156.89 130.72 156.27 132.12 157.07 131.04 157.69"/><polygon class="cls-114" points="132.93 158.78 131.53 157.97 132.6 157.35 134 158.16 132.93 158.78"/><polygon class="cls-114" points="134.81 159.86 133.41 159.06 134.48 158.44 135.88 159.24 134.81 159.86"/><polygon class="cls-114" points="136.69 160.95 135.29 160.14 136.36 159.52 137.76 160.33 136.69 160.95"/><polygon class="cls-114" points="138.57 162.03 137.17 161.23 138.24 160.61 139.64 161.41 138.57 162.03"/><polygon class="cls-114" points="140.45 163.12 139.05 162.31 140.13 161.69 141.52 162.5 140.45 163.12"/><polygon class="cls-114" points="125.71 156.43 124.31 155.63 125.38 155 126.78 155.81 125.71 156.43"/><polygon class="cls-114" points="127.59 157.52 126.19 156.71 127.26 156.09 128.66 156.9 127.59 157.52"/><polygon class="cls-114" points="129.47 158.6 128.07 157.8 129.15 157.18 130.54 157.98 129.47 158.6"/><polygon class="cls-114" points="131.35 159.69 129.96 158.88 131.03 158.26 132.43 159.07 131.35 159.69"/><polygon class="cls-114" points="133.24 160.77 131.84 159.97 132.91 159.35 134.31 160.15 133.24 160.77"/><polygon class="cls-114" points="135.12 161.86 133.72 161.05 134.79 160.43 136.19 161.24 135.12 161.86"/><polygon class="cls-114" points="137 162.94 135.6 162.14 136.67 161.52 138.07 162.32 137 162.94"/><polygon class="cls-114" points="138.88 164.03 137.48 163.22 138.56 162.6 139.95 163.41 138.88 164.03"/><polygon class="cls-114" points="124.14 157.34 122.74 156.54 123.81 155.91 125.21 156.72 124.14 157.34"/><polygon class="cls-114" points="133.55 162.77 124.62 157.62 125.69 157 134.62 162.15 133.55 162.77"/><polygon class="cls-114" points="135.43 163.85 134.03 163.05 135.1 162.43 136.5 163.23 135.43 163.85"/><polygon class="cls-114" points="137.31 164.94 135.91 164.13 136.99 163.51 138.38 164.32 137.31 164.94"/><polygon class="cls-114" points="145.39 162.56 144 161.75 144.43 161.5 145.83 162.3 145.39 162.56"/><polygon class="cls-114" points="144 163.36 142.6 162.56 143.67 161.94 145.07 162.74 144 163.36"/><polygon class="cls-114" points="142.43 164.27 141.03 163.47 142.1 162.85 143.5 163.65 142.43 164.27"/><polygon class="cls-114" points="140.86 165.18 139.46 164.38 140.53 163.75 141.93 164.56 140.86 165.18"/><polygon class="cls-114" points="139.29 166.09 137.89 165.29 138.96 164.66 140.36 165.47 139.29 166.09"/><path class="cls-115" d="M149.36,170.93l3.16-1.82a1.67,1.67,0,0,0,0-2.89h0a4.66,4.66,0,0,0-4.66,0l-3.28,1.89a1.63,1.63,0,0,0,0,2.82h0A4.78,4.78,0,0,0,149.36,170.93Z"/><path class="cls-116" d="M152.52,166.22a4.66,4.66,0,0,0-4.66,0l-3.28,1.89a1.63,1.63,0,0,0,0,2.82,4.78,4.78,0,0,0,3.68.46c.55-1.18,3.12-3.15,4.9-2.94A1.67,1.67,0,0,0,152.52,166.22Z"/><path class="cls-94" d="M132,167.47c-.88,0-5.48-6-6.77-7.6s-3.12-1.51-3.73-.64a4,4,0,0,0,.75,5.57c2.06,1.85,6.39,6.42,8.22,6.66s9.57.76,12.79.1c1-.21,1.85-.23,2.45-.41s1.75,0,2.58-.58c.37-.26,1.37-1.13,2.27-1.7a18.94,18.94,0,0,0,2.27-1.3c.75-1.17-2.22-2.41-3.55-2.25a7.57,7.57,0,0,0-2.48.55c.69-.41-.27-.71-.75-.33s-.53,1-1.16,1.76a4.52,4.52,0,0,1-1.62,1.21S132.85,167.48,132,167.47Z"/><path class="cls-117" d="M127.47,161.82a4.88,4.88,0,0,1-4.5,4.94s-3.4-3.84-4.33-4.9-2-4.24,0-6.16c1.73-1.6,3.65,0,5,1.64S127.47,161.82,127.47,161.82Z"/><polygon class="cls-118" points="129.97 106.13 146.75 22.94 283.29 98.7 165.77 125.98 129.97 106.13"/><polygon class="cls-119" points="165.77 125.98 283.29 98.7 283.29 178.2 166.18 156.93 165.77 125.98"/></g></g></svg>