<svg id="Layer_1" data-name="Layer 1" xmlns="http://www.w3.org/2000/svg" xmlns:xlink="http://www.w3.org/1999/xlink" viewBox="0 0 181.47 204.69"><defs><style>.cls-1{fill:none;stroke-miterlimit:10;stroke-width:4px;stroke:url(#linear-gradient);}.cls-2{fill:#ff8a8a;}.cls-3{fill:#e8fc7d;}.cls-4{fill:#96a0ff;}.cls-5{fill:#87f7b4;}</style><linearGradient id="linear-gradient" x1="0.67" y1="102.35" x2="181.46" y2="102.35" gradientUnits="userSpaceOnUse"><stop offset="0" stop-color="#96a0ff" stop-opacity="0.2"/><stop offset="0.99" stop-color="#96a0ff"/></linearGradient></defs><title>icon-gear</title><path class="cls-1" d="M2.67,57.91v88.87a11.43,11.43,0,0,0,5.71,9.9l77,44.44a11.43,11.43,0,0,0,11.43,0l77-44.44a11.43,11.43,0,0,0,5.71-9.9V57.91a11.43,11.43,0,0,0-5.71-9.9l-77-44.44a11.43,11.43,0,0,0-11.43,0L8.39,48A11.43,11.43,0,0,0,2.67,57.91Z"/><circle class="cls-2" cx="170.03" cy="76.98" r="5.29"/><circle class="cls-3" cx="5.7" cy="54.58" r="3.69"/><circle class="cls-4" cx="20.52" cy="23.24" r="1.38"/><circle class="cls-4" cx="9.39" cy="145.91" r="3.56"/><circle class="cls-4" cx="86.21" cy="55.44" r="0.96"/><circle class="cls-5" cx="164.74" cy="32.44" r="5.88"/><path class="cls-4" d="M118.68,86.65,117.33,89a2,2,0,0,1-2.48.89,18.18,18.18,0,0,1-5.28-3.06,2,2,0,0,1-.46-2.58l1.35-2.35a14.2,14.2,0,0,1-2.62-4.51h-2.71a2,2,0,0,1-2-1.69,18.54,18.54,0,0,1,0-6.1,2,2,0,0,1,2-1.71h2.71a14.2,14.2,0,0,1,2.62-4.51L109.1,61a2,2,0,0,1,.46-2.58,18.4,18.4,0,0,1,5.28-3.06,2,2,0,0,1,2.48.89l1.35,2.35a14.62,14.62,0,0,1,5.22,0l1.35-2.35a2,2,0,0,1,2.48-.89A18.18,18.18,0,0,1,133,58.43a2,2,0,0,1,.46,2.58l-1.35,2.35a14.2,14.2,0,0,1,2.62,4.51h2.71a2,2,0,0,1,2,1.69,18.54,18.54,0,0,1,0,6.1,2,2,0,0,1-2,1.71h-2.71a14.2,14.2,0,0,1-2.62,4.51l1.35,2.35a2,2,0,0,1-.46,2.58,18.4,18.4,0,0,1-5.28,3.06,2,2,0,0,1-2.48-.89l-1.35-2.35A14.62,14.62,0,0,1,118.68,86.65ZM117,77c6.33,4.87,13.56-2.35,8.69-8.69C119.3,63.4,112.08,70.64,117,77ZM98,102.29l5.55,2.76a4,4,0,0,1,1.73,4.79c-1.46,4-4.34,7.63-7,10.83a3.93,3.93,0,0,1-5,.87l-4.79-2.76a28.27,28.27,0,0,1-9,5.22v5.53a3.94,3.94,0,0,1-3.24,3.88,37,37,0,0,1-12.49,0,4,4,0,0,1-3.29-3.88V124a28.57,28.57,0,0,1-9-5.22l-4.79,2.75a3.94,3.94,0,0,1-5-.87c-2.67-3.19-5.48-6.85-6.94-10.81a4,4,0,0,1,1.73-4.79l5.48-2.76a28.51,28.51,0,0,1,0-10.43l-5.48-2.78a3.92,3.92,0,0,1-1.73-4.77c1.46-4,4.28-7.63,6.94-10.83a3.93,3.93,0,0,1,5-.87l4.79,2.76a28.27,28.27,0,0,1,9-5.22V64.61a3.92,3.92,0,0,1,3.23-3.87,37.53,37.53,0,0,1,12.51,0,4,4,0,0,1,3.29,3.88v5.53a28.57,28.57,0,0,1,9,5.22l4.79-2.76a3.94,3.94,0,0,1,5,.87c2.67,3.19,5.46,6.85,6.93,10.83a3.93,3.93,0,0,1-1.65,4.79L98,91.85A28.59,28.59,0,0,1,98,102.29Zm-19.35,3.47c9.74-12.67-4.72-27.13-17.39-17.39C51.49,101,66,115.51,78.63,105.77Zm40.05,30.06-1.35,2.35a2,2,0,0,1-2.48.89,18.18,18.18,0,0,1-5.28-3.06,2,2,0,0,1-.46-2.58l1.35-2.35a14.2,14.2,0,0,1-2.62-4.51h-2.71a2,2,0,0,1-2-1.69,18.54,18.54,0,0,1,0-6.1,2,2,0,0,1,2-1.71h2.71a14.2,14.2,0,0,1,2.62-4.51l-1.35-2.35a2,2,0,0,1,.46-2.58,18.4,18.4,0,0,1,5.28-3.06,2,2,0,0,1,2.48.89l1.35,2.35a14.62,14.62,0,0,1,5.22,0l1.35-2.35a2,2,0,0,1,2.48-.89,18.18,18.18,0,0,1,5.28,3.06,2,2,0,0,1,.46,2.58l-1.35,2.35a14.2,14.2,0,0,1,2.62,4.51h2.71a2,2,0,0,1,2,1.69,18.54,18.54,0,0,1,0,6.1,2,2,0,0,1-2,1.71h-2.71a14.2,14.2,0,0,1-2.62,4.51l1.35,2.35A2,2,0,0,1,133,136a18.4,18.4,0,0,1-5.28,3.06,2,2,0,0,1-2.48-.89l-1.35-2.35A14.62,14.62,0,0,1,118.68,135.83ZM117,126.14c6.33,4.87,13.56-2.35,8.69-8.69-6.33-4.87-13.56,2.35-8.69,8.69Z"/></svg>