<svg id="Layer_1" data-name="Layer 1" xmlns="http://www.w3.org/2000/svg" viewBox="0 0 180.75 128"><defs><style>.cls-1{font-size:202.17px;font-family:Roboto-Bold, Roboto;font-weight:700;}.cls-1,.cls-7{fill:#fff;}.cls-2,.cls-3{fill:#96a0ff;}.cls-2{opacity:0.2;}.cls-4{fill:#87f7b4;}.cls-5{fill:#ff8a8a;}.cls-6{fill:#e8fc7d;}.cls-7{opacity:0.1;}</style></defs><title>icon-work</title><text class="cls-1" transform="translate(33.74 -47.46)">3</text><path class="cls-2" d="M136.36,46.13H113.22a15.8,15.8,0,0,1-3.31,17.41L83.35,90.09v9a9.36,9.36,0,0,0,9.36,9.36h43.66a9.36,9.36,0,0,0,9.36-9.36V55.48A9.36,9.36,0,0,0,136.36,46.13ZM114.53,82a4.68,4.68,0,1,1,4.68-4.68A4.68,4.68,0,0,1,114.53,82Zm-9-36.39L71.4,11.51a9.56,9.56,0,0,0-13.52,0L23.78,45.6a9.56,9.56,0,0,0,0,13.52l34.09,34.1a9.56,9.56,0,0,0,13.52,0l34.1-34.09a9.57,9.57,0,0,0,0-13.53ZM39.69,57a4.68,4.68,0,1,1,4.68-4.68A4.68,4.68,0,0,1,39.69,57ZM64.64,82a4.68,4.68,0,1,1,4.68-4.68A4.68,4.68,0,0,1,64.64,82Zm0-24.95a4.68,4.68,0,1,1,4.68-4.68A4.68,4.68,0,0,1,64.64,57Zm0-24.95a4.68,4.68,0,1,1,4.68-4.68A4.68,4.68,0,0,1,64.64,32.1ZM89.59,57a4.68,4.68,0,1,1,4.68-4.68A4.68,4.68,0,0,1,89.59,57Z"/><circle class="cls-3" cx="51.98" cy="34" r="2.62"/><circle class="cls-4" cx="17.14" cy="123.14" r="1.36"/><circle class="cls-5" cx="159.37" cy="77.79" r="3.7"/><circle class="cls-3" cx="17.58" cy="8.71" r="5.79"/><circle class="cls-6" cx="80.27" cy="24.61" r="1.48"/><circle class="cls-6" cx="83.35" cy="117.09" r="0.92"/><circle class="cls-3" cx="163.04" cy="22.46" r="3.67"/><circle class="cls-7" cx="41.96" cy="55.47" r="21.47"/><circle class="cls-7" cx="109.12" cy="101.1" r="7.63"/><circle class="cls-7" cx="128.46" cy="52.59" r="15.97"/><circle class="cls-7" cx="156.22" cy="58.6" r="6.86"/><circle class="cls-7" cx="140.59" cy="69.48" r="6.86"/><circle class="cls-7" cx="73.58" cy="8.65" r="10.15"/></svg>