<svg id="Layer_1" data-name="Layer 1" xmlns="http://www.w3.org/2000/svg" xmlns:xlink="http://www.w3.org/1999/xlink" viewBox="0 0 181.47 204.69"><defs><style>.cls-1{fill:none;stroke-miterlimit:10;stroke-width:4px;stroke:url(#linear-gradient);}.cls-2{fill:#96a0ff;}.cls-3{fill:#fff;opacity:0.1;}</style><linearGradient id="linear-gradient" x1="0.67" y1="102.35" x2="181.46" y2="102.35" gradientUnits="userSpaceOnUse"><stop offset="0" stop-color="#96a0ff" stop-opacity="0.2"/><stop offset="0.99" stop-color="#96a0ff"/></linearGradient></defs><title>icon-code</title><path class="cls-1" d="M2.67,57.91v88.87a11.43,11.43,0,0,0,5.71,9.9l77,44.44a11.43,11.43,0,0,0,11.43,0l77-44.44a11.43,11.43,0,0,0,5.71-9.9V57.91a11.43,11.43,0,0,0-5.71-9.9l-77-44.44a11.43,11.43,0,0,0-11.43,0L8.39,48A11.43,11.43,0,0,0,2.67,57.91Z"/><circle class="cls-2" cx="170.03" cy="76.98" r="5.29"/><circle class="cls-2" cx="5.7" cy="54.58" r="3.69"/><circle class="cls-2" cx="18.62" cy="21.35" r="3.14"/><circle class="cls-2" cx="164.74" cy="32.44" r="5.88"/><path class="cls-2" d="M79.5,149.37l-11.23-3.26a2.21,2.21,0,0,1-1.51-2.74L91.89,56.83a2.21,2.21,0,0,1,2.74-1.51l11.23,3.26a2.21,2.21,0,0,1,1.51,2.74L82.24,147.86A2.21,2.21,0,0,1,79.5,149.37Zm-21-20.65,8-8.54a2.21,2.21,0,0,0-.15-3.17L49.7,102.35,66.38,87.68a2.19,2.19,0,0,0,.15-3.17l-8-8.54a2.21,2.21,0,0,0-3.13-.09L28.87,100.73a2.19,2.19,0,0,0,0,3.22l26.52,24.86a2.19,2.19,0,0,0,3.13-.09Zm60.22.11L145.26,104a2.19,2.19,0,0,0,0-3.22L118.74,75.86a2.23,2.23,0,0,0-3.13.09l-8,8.54a2.21,2.21,0,0,0,.15,3.17l16.67,14.69L107.75,117a2.19,2.19,0,0,0-.15,3.17l8,8.54a2.21,2.21,0,0,0,3.13.11Z"/><circle class="cls-3" cx="41.97" cy="76.98" r="25.63"/><circle class="cls-3" cx="135.66" cy="133.46" r="32.75"/></svg>