<svg id="Layer_1" data-name="Layer 1" xmlns="http://www.w3.org/2000/svg" viewBox="0 0 180.75 128"><defs><style>.cls-1,.cls-6{fill:#96a0ff;}.cls-2{fill:#87f7b4;}.cls-3{fill:#ff8a8a;}.cls-4{fill:#e8fc7d;}.cls-5,.cls-7{fill:#fff;}.cls-5{opacity:0.1;}.cls-6{opacity:0.2;}</style></defs><title>icon-done</title><circle class="cls-1" cx="51.98" cy="34" r="2.62"/><circle class="cls-2" cx="17.14" cy="123.14" r="1.36"/><circle class="cls-3" cx="159.37" cy="77.79" r="3.7"/><circle class="cls-1" cx="17.58" cy="8.71" r="5.79"/><circle class="cls-4" cx="80.27" cy="24.61" r="1.48"/><circle class="cls-4" cx="83.35" cy="117.09" r="0.92"/><circle class="cls-1" cx="163.04" cy="22.46" r="3.67"/><path class="cls-5" d="M113.48,94.84a9,9,0,0,1-2,.23,8.92,8.92,0,0,1-4.58-1.26,7.61,7.61,0,0,1,2.25-.34A7.53,7.53,0,0,1,113.48,94.84Z"/><circle class="cls-5" cx="137.24" cy="14.5" r="10.15"/><path class="cls-6" d="M129.78,29.2H115.55V23.73a3.29,3.29,0,0,0-3.29-3.29H75a3.29,3.29,0,0,0-3.29,3.29V29.2H57.53a3.27,3.27,0,0,0-3.28,3.28v7.67c0,4.88,3.08,9.9,8.47,13.78a32.12,32.12,0,0,0,15,5.7c4.3,7.13,9.32,10.07,9.32,10.07v9.85H80.52c-4.83,0-8.76,2.84-8.76,7.67v1.64A1.65,1.65,0,0,0,73.4,90.5h40.51a1.65,1.65,0,0,0,1.64-1.64V87.22c0-4.83-3.93-7.67-8.76-7.67h-6.57V69.7A27.56,27.56,0,0,0,107,63.25a36.06,36.06,0,0,0,2.49-3.62A32.69,32.69,0,0,0,121,56.17a28.52,28.52,0,0,0,3.63-2.24C130,50,133.06,45,133.06,40.15V32.48A3.27,3.27,0,0,0,129.78,29.2Zm-62,17.62C64.5,44.42,63,41.73,63,40.15V38h8.79a51.27,51.27,0,0,0,.67,6.88h0a44.28,44.28,0,0,0,1.08,4.9A21.87,21.87,0,0,1,67.83,46.82Zm56.48-6.67c0,2.2-2.43,4.94-4.83,6.67a22.08,22.08,0,0,1-5.72,2.93A49.66,49.66,0,0,0,115.51,38h8.8Z"/><path class="cls-6" d="M52,60A15.23,15.23,0,1,0,67.21,75.28,15.18,15.18,0,0,0,52,60Zm8,13.61-3.28,3.19.78,4.52a1,1,0,0,1-1.44,1L52,80.28l-4.06,2.14-.14,0a1,1,0,0,1-1.3-1.1l.78-4.52L44,73.66a1,1,0,0,1,.55-1.7l4.53-.66.58-1.18,1.45-2.93a1,1,0,0,1,.89-.55,1,1,0,0,1,.89.55l2,4.11,4.53.66A1,1,0,0,1,60,73.66Z"/><path class="cls-5" d="M96.67,28.13A17.9,17.9,0,0,1,72.46,44.85h0A51.27,51.27,0,0,1,71.79,38H63.87a17.75,17.75,0,0,1-2.92-8.76H71.76V23.73A3.29,3.29,0,0,1,75,20.44H94.94A17.84,17.84,0,0,1,96.67,28.13Z"/><path class="cls-7" d="M113.48,94.84a9,9,0,0,1-2,.23,8.92,8.92,0,0,1-4.58-1.26,7.61,7.61,0,0,1,2.25-.34A7.53,7.53,0,0,1,113.48,94.84Z"/><path class="cls-5" d="M115.55,87.22v1.64a1.65,1.65,0,0,1-1.64,1.64H103.67a8.79,8.79,0,0,1-1.14-4.35,8.9,8.9,0,0,1,2.92-6.6h1.34C111.62,79.55,115.55,82.39,115.55,87.22Z"/><path class="cls-5" d="M50.15,74.09A16,16,0,0,1,42.91,87.5,15.23,15.23,0,0,1,44.59,62a16,16,0,0,1,5.06,8.15A15.76,15.76,0,0,1,50.15,74.09Z"/><path class="cls-5" d="M121,56.17a32.69,32.69,0,0,1-11.42,3.46A36.06,36.06,0,0,1,107,63.25,8,8,0,1,1,121,56.17Z"/></svg>