<svg id="Layer_1" data-name="Layer 1" xmlns="http://www.w3.org/2000/svg" viewBox="0 0 221.79 128"><defs><style>.cls-1,.cls-2{fill:#96a0ff;}.cls-1{opacity:0.02;}.cls-3{fill:#87f7b4;}.cls-4{fill:#ff8a8a;}.cls-5{fill:#e8fc7d;}.cls-6{fill:#fff;opacity:0.1;}</style></defs><title>icon-bg-block</title><path class="cls-1" d="M164.06,76.9,207,119.82a12,12,0,0,0,17,0L266.93,76.9a12,12,0,0,0,0-17L224,17a12,12,0,0,0-17,0L164.06,59.88a12,12,0,0,0,0,17ZM246.9,62.5A5.89,5.89,0,1,1,241,68.39,5.89,5.89,0,0,1,246.9,62.5Zm-31.4-31.4A5.89,5.89,0,1,1,209.61,37,5.89,5.89,0,0,1,215.49,31.1Zm0,31.4a5.89,5.89,0,1,1-5.89,5.89A5.89,5.89,0,0,1,215.49,62.5Zm0,31.4a5.89,5.89,0,1,1-5.89,5.89A5.89,5.89,0,0,1,215.49,93.91Zm-31.4-31.4a5.89,5.89,0,1,1-5.89,5.89A5.89,5.89,0,0,1,184.09,62.5ZM97.88,111.12l6.86,6.86a1.92,1.92,0,0,0,2.72,0l6.86-6.86a1.92,1.92,0,0,0,0-2.72l-6.86-6.86a1.92,1.92,0,0,0-2.72,0l-6.86,6.86a1.92,1.92,0,0,0,0,2.72Zm13.24-2.3a.94.94,0,1,1-.94.94A.94.94,0,0,1,111.12,108.82Zm-5-5a.94.94,0,1,1-.94.94A.94.94,0,0,1,106.1,103.8Zm0,5a.94.94,0,1,1-.94.94A.94.94,0,0,1,106.1,108.82Zm0,5a.94.94,0,1,1-.94.94A.94.94,0,0,1,106.1,113.84Zm-5-5a.94.94,0,1,1-.94.94A.94.94,0,0,1,101.08,108.82ZM82.24,36.38l4.43,4.43a1.24,1.24,0,0,0,1.76,0l4.43-4.43a1.24,1.24,0,0,0,0-1.76L88.42,30.2a1.24,1.24,0,0,0-1.76,0l-4.43,4.43a1.24,1.24,0,0,0,0,1.76Zm8.54-1.49a.61.61,0,1,1-.61.61A.61.61,0,0,1,90.79,34.9Zm-3.24-3.24a.61.61,0,1,1-.61.61A.61.61,0,0,1,87.55,31.66Zm0,3.24a.61.61,0,1,1-.61.61A.61.61,0,0,1,87.55,34.9Zm0,3.24a.61.61,0,1,1-.61.61A.61.61,0,0,1,87.55,38.14ZM84.31,34.9a.61.61,0,1,1-.61.61A.61.61,0,0,1,84.31,34.9Zm82.25,80.16,3.06,3.06a.86.86,0,0,0,1.21,0l3.06-3.06a.86.86,0,0,0,0-1.21l-3.06-3.06a.86.86,0,0,0-1.21,0l-3.06,3.06a.86.86,0,0,0,0,1.21Zm5.91-1a.42.42,0,1,1-.42.42A.42.42,0,0,1,172.46,114Zm-2.24-2.24a.42.42,0,1,1-.42.42A.42.42,0,0,1,170.22,111.79Zm0,2.24a.42.42,0,1,1-.42.42A.42.42,0,0,1,170.22,114Zm0,2.24a.42.42,0,1,1-.42.42A.42.42,0,0,1,170.22,116.27ZM168,114a.42.42,0,1,1-.42.42A.42.42,0,0,1,168,114ZM59.66,15.47l3.18,3.18a.89.89,0,0,0,1.26,0l3.18-3.18a.89.89,0,0,0,0-1.26L64.11,11a.89.89,0,0,0-1.26,0l-3.18,3.18a.89.89,0,0,0,0,1.26Zm6.15-1.07a.44.44,0,1,1-.44.44A.44.44,0,0,1,65.81,14.4Zm-2.33-2.33a.44.44,0,1,1-.44.44A.44.44,0,0,1,63.48,12.07Zm0,2.33a.44.44,0,1,1-.44.44A.44.44,0,0,1,63.48,14.4Zm0,2.33a.44.44,0,1,1-.44.44A.44.44,0,0,1,63.48,16.73ZM61.15,14.4a.44.44,0,1,1-.44.44A.44.44,0,0,1,61.15,14.4Zm133,2.83,2.5,2.5a.7.7,0,0,0,1,0l2.5-2.5a.7.7,0,0,0,0-1l-2.5-2.5a.7.7,0,0,0-1,0l-2.5,2.5a.7.7,0,0,0,0,1Zm4.83-.84a.34.34,0,1,1-.34.34A.34.34,0,0,1,199,16.39Zm-1.83-1.83a.34.34,0,1,1-.34.34A.34.34,0,0,1,197.13,14.56Zm0,1.83a.34.34,0,1,1-.34.34A.34.34,0,0,1,197.13,16.39Zm0,1.83a.34.34,0,1,1-.34.34A.34.34,0,0,1,197.13,18.22Zm-1.83-1.83a.34.34,0,1,1-.34.34A.34.34,0,0,1,195.3,16.39ZM115.16,9.73l3.43,3.43a1,1,0,0,0,1.36,0l3.43-3.43a1,1,0,0,0,0-1.36L120,4.94a1,1,0,0,0-1.36,0l-3.43,3.43a1,1,0,0,0,0,1.36Zm6.62-1.15a.47.47,0,1,1-.47.47A.47.47,0,0,1,121.79,8.58Zm-2.51-2.51a.47.47,0,1,1-.47.47A.47.47,0,0,1,119.28,6.07Zm0,2.51a.47.47,0,1,1-.47.47A.47.47,0,0,1,119.28,8.58Zm0,2.51a.47.47,0,1,1-.47.47A.47.47,0,0,1,119.28,11.09Zm-2.51-2.51a.47.47,0,1,1-.47.47A.47.47,0,0,1,116.77,8.58Z"/><circle class="cls-2" cx="50.57" cy="35.42" r="1.2"/><circle class="cls-3" cx="17.14" cy="123.14" r="1.36"/><circle class="cls-4" cx="156.21" cy="80.96" r="0.54"/><circle class="cls-4" cx="34.01" cy="67.52" r="0.51"/><circle class="cls-2" cx="13.35" cy="12.94" r="1.56"/><circle class="cls-5" cx="76.07" cy="20.84" r="0.72"/><circle class="cls-5" cx="55.24" cy="125.21" r="0.74"/><circle class="cls-5" cx="83.35" cy="117.09" r="0.92"/><circle class="cls-2" cx="184.44" cy="39.6" r="0.59"/><circle class="cls-6" cx="122.71" cy="32.8" r="1.41"/></svg>