<svg id="Layer_1" data-name="Layer 1" xmlns="http://www.w3.org/2000/svg" viewBox="0 0 180.75 128"><defs><style>.cls-1,.cls-5{fill:#96a0ff;}.cls-2{fill:#87f7b4;}.cls-3{fill:#ff8a8a;}.cls-4{fill:#e8fc7d;}.cls-5{opacity:0.2;}.cls-6{fill:#fff;opacity:0.1;}</style></defs><title>icon-shake</title><circle class="cls-1" cx="51.98" cy="34" r="2.62"/><circle class="cls-2" cx="17.14" cy="123.14" r="1.36"/><circle class="cls-3" cx="159.37" cy="77.79" r="3.7"/><circle class="cls-1" cx="17.58" cy="8.71" r="5.79"/><circle class="cls-4" cx="80.27" cy="24.61" r="1.48"/><circle class="cls-4" cx="83.35" cy="117.09" r="0.92"/><circle class="cls-1" cx="163.04" cy="22.46" r="3.67"/><path class="cls-5" d="M109.27,39.49H95.12a5.27,5.27,0,0,0-3.56,1.38L75.37,55.7l0,.07A6.55,6.55,0,0,0,75,65a6.87,6.87,0,0,0,9.24.44l.07,0L97.44,53.34A2.63,2.63,0,1,1,101,57.23l-4.3,3.94,24,19.47A11.87,11.87,0,0,1,122,81.9V50l-9-9a5.23,5.23,0,0,0-3.72-1.55Zm18,10.57V86.94a5.26,5.26,0,0,0,5.27,5.27h10.54V50.07Zm7.91,36.88a2.64,2.64,0,1,1,2.64-2.64A2.64,2.64,0,0,1,135.17,86.94ZM37.67,92.2H48.21a5.26,5.26,0,0,0,5.27-5.27V50.07H37.67Zm7.91-10.52a2.64,2.64,0,1,1-2.64,2.64A2.64,2.64,0,0,1,45.58,81.67Zm71.79,3.06-24.59-20L87.84,69.3a11.85,11.85,0,1,1-16-17.47L85.29,39.49H71.48A5.26,5.26,0,0,0,67.76,41l-9,9V86.91h3L76.67,100.4a10.54,10.54,0,0,0,14.82-1.53l0,0,2.95,2.55a6.12,6.12,0,0,0,8.61-.89l5.17-6.36.89.72a5.26,5.26,0,0,0,7.41-.77l1.56-1.93a5.28,5.28,0,0,0-.76-7.43Z"/><circle class="cls-6" cx="41.96" cy="55.47" r="21.47"/><circle class="cls-6" cx="109.12" cy="101.1" r="7.63"/><circle class="cls-6" cx="128.46" cy="52.59" r="15.97"/><circle class="cls-6" cx="156.22" cy="58.6" r="6.86"/><circle class="cls-6" cx="140.59" cy="69.48" r="6.86"/><circle class="cls-6" cx="73.58" cy="8.65" r="10.15"/></svg>