<svg id="Layer_1" data-name="Layer 1" xmlns="http://www.w3.org/2000/svg" xmlns:xlink="http://www.w3.org/1999/xlink" viewBox="0 0 181.47 204.69"><defs><style>.cls-1{fill:none;stroke-miterlimit:10;stroke-width:4px;stroke:url(#linear-gradient);}.cls-2{fill:#ff8a8a;}.cls-3{fill:#e8fc7d;}.cls-4{fill:#96a0ff;}.cls-5{fill:#87f7b4;}</style><linearGradient id="linear-gradient" x1="0.67" y1="102.35" x2="181.46" y2="102.35" gradientUnits="userSpaceOnUse"><stop offset="0" stop-color="#96a0ff" stop-opacity="0.2"/><stop offset="0.99" stop-color="#96a0ff"/></linearGradient></defs><title>icon-team</title><path class="cls-1" d="M2.67,57.91v88.87a11.43,11.43,0,0,0,5.71,9.9l77,44.44a11.43,11.43,0,0,0,11.43,0l77-44.44a11.43,11.43,0,0,0,5.71-9.9V57.91a11.43,11.43,0,0,0-5.71-9.9l-77-44.44a11.43,11.43,0,0,0-11.43,0L8.39,48A11.43,11.43,0,0,0,2.67,57.91Z"/><circle class="cls-2" cx="170.03" cy="76.98" r="5.29"/><circle class="cls-3" cx="5.7" cy="54.58" r="3.69"/><circle class="cls-4" cx="20.52" cy="23.24" r="1.38"/><circle class="cls-4" cx="9.39" cy="145.91" r="3.56"/><circle class="cls-4" cx="86.21" cy="55.44" r="0.96"/><circle class="cls-5" cx="164.74" cy="32.44" r="5.88"/><path class="cls-4" d="M148,99.09,137.11,80.28a3.49,3.49,0,0,0,.41-1.57,3.31,3.31,0,0,0-3.19-3.25l-12-20.79a3.39,3.39,0,0,0,.23-1,3.3,3.3,0,0,0-5.86-2.09H93.56a3.17,3.17,0,0,0-5,0h-23a3.3,3.3,0,0,0-5.86,2.09,3.05,3.05,0,0,0,.23,1L47.81,75.75a3.24,3.24,0,0,0-2,3c0,.12.06.23.06.35L34.34,99a3.3,3.3,0,0,0-2.73,3.25,3.35,3.35,0,0,0,2.61,3.25l12,20.67a3,3,0,0,0-.17,1,3.24,3.24,0,0,0,2.61,3.19L59.83,149.9a3.75,3.75,0,0,0-.23,1.16,3.31,3.31,0,0,0,3.31,3.31,3.21,3.21,0,0,0,2.5-1.16H88.57a3.26,3.26,0,0,0,5,0h23.22a3.24,3.24,0,0,0,2.38,1,3.31,3.31,0,0,0,3.31-3.31,2.4,2.4,0,0,0-.17-.93l11.21-19.57a3.24,3.24,0,0,0,2.61-3.19,3.29,3.29,0,0,0-.17-1l11.9-20.67a3.31,3.31,0,0,0,2.67-3.25A3.25,3.25,0,0,0,148,99.09Zm-86,45.46-9.46-16.43h9.46Zm0-18.17H52.46a3.57,3.57,0,0,0-.29-.7l9.75-10.28Zm0-13.53L51,124.41a5.43,5.43,0,0,0-.87-.35l-12.08-20.9a2.26,2.26,0,0,0,.12-.87,3.07,3.07,0,0,0-.06-.75L49.38,82a3.66,3.66,0,0,0,1.68-.58L61.92,92.71v20.15Zm0-22.18L52,80.4a3.17,3.17,0,0,0,.46-1.68c0-.06-.06-.17-.06-.23l9.52-3.43Zm0-17.48-9.46,3.43,9.46-16.37Zm70.78,8.48.17.29-7.66,36.23-13.82-14.57,21.25-22ZM91.88,123.83l2.5,2.55H89.44Zm-.06-2.44L73.77,102.87,91,84.58l18,19ZM93,122.67l17.19-17.82,14.63,15.44-1.28,6.1H96.64ZM117.6,56.48a2.91,2.91,0,0,0,.75.29L130.9,78.6v.12a3.17,3.17,0,0,0,.46,1.68l-21.13,21.95-18-19Zm-2-.46L91,82.08,78.64,69,114.7,56h.93ZM88.86,56a3.09,3.09,0,0,0,4.41,0h16.26L77.37,67.63,66.33,56Zm-25.2,1.22.23-.46.58-.17L75.57,68.27l-11.9,4.3Zm0,17.19,13.18-4.76,12.95,13.7L72.55,101.59l-8.88-9.12Zm0,20.09,7.9,8.19-7.9,8.3V94.51Zm0,19,9.12-9.64,17.94,18.64L87,126.38H63.66V113.55Zm1.51,35.13a3.12,3.12,0,0,0-1.28-.75l-.23-.35V128.13H85.32L65.46,148.68Zm28.16,0a3.22,3.22,0,0,0-4.53,0H67.9l19.86-20.55h8.3l19.86,20.55H93.33Zm26-2.55-.93,1.63a2.92,2.92,0,0,0-.75.29L98.32,128.12h24.79l-3.77,18Zm2.79-4.82,2.79-13.18h4.76Zm7.55-14.92h-4.41l1-4.59,3.72,3.95a2.15,2.15,0,0,0-.29.64ZM144,103.1l-12,21a5.86,5.86,0,0,0-.87.41l-4.47-4.76,7.49-35.53,9.93,17.19a4.41,4.41,0,0,0-.17.93A3.92,3.92,0,0,0,144,103.1Z"/></svg>