<svg id="Layer_1" data-name="Layer 1" xmlns="http://www.w3.org/2000/svg" xmlns:xlink="http://www.w3.org/1999/xlink" viewBox="0 0 180.75 204.72"><defs><style>.cls-1{fill:none;stroke-miterlimit:10;stroke-width:4px;stroke:url(#linear-gradient);}.cls-2{fill:#ff8a8a;}.cls-3{fill:#fff;opacity:0.07;}</style><linearGradient id="linear-gradient" x1="-0.11" y1="102.74" x2="180.68" y2="102.74" gradientUnits="userSpaceOnUse"><stop offset="0" stop-color="#ff8a8a" stop-opacity="0.2"/><stop offset="1" stop-color="#ff8a8a"/></linearGradient></defs><title>icon-mail</title><path class="cls-1" d="M1.89,58.31v88.87a11.43,11.43,0,0,0,5.71,9.9l77,44.44a11.43,11.43,0,0,0,11.43,0l77-44.44a11.43,11.43,0,0,0,5.71-9.9V58.31a11.43,11.43,0,0,0-5.71-9.9L96,4A11.43,11.43,0,0,0,84.57,4L7.6,48.41A11.43,11.43,0,0,0,1.89,58.31Z"/><circle class="cls-2" cx="152.16" cy="186.37" r="2.62"/><circle class="cls-2" cx="7.51" cy="147.21" r="1.36"/><circle class="cls-2" cx="166.45" cy="30.87" r="3.7"/><circle class="cls-2" cx="54.08" cy="9.31" r="4.71"/><circle class="cls-2" cx="7.51" cy="41.14" r="3.67"/><path class="cls-2" d="M118.15,55.71h-54a5.39,5.39,0,0,0-5.39,5.4V93.49H75v-5.4a11,11,0,0,1,.11-1.53,10.81,10.81,0,0,1,8.23-9,11,11,0,0,1,2.45-.28h37.77V61.11A5.39,5.39,0,0,0,118.15,55.71Zm21.58,27h-54a5.39,5.39,0,0,0-5.4,5.39v5.4H96.55a10.82,10.82,0,0,1,10.75,9.75l0,0v22.67h32.38a5.4,5.4,0,0,0,5.4-5.4V88.09A5.39,5.39,0,0,0,139.73,82.7Zm-5.39,21.58h-10.8V93.49h10.8ZM96.55,98.89H53.39a5.39,5.39,0,0,0-5.4,5.39V107c4.32,3.24,3.78,3.24,19.43,14.57,1.62,1.08,4.86,4.32,7.56,4.32s5.93-3.24,7.55-3.78c15.65-11.33,15.11-11.33,19.43-14.57v-3.24A5.39,5.39,0,0,0,96.55,98.89Zm-10.79,27c-2.16,1.62-6.48,5.39-10.79,5.39s-8.64-3.77-10.8-5.39C53.39,118.31,50.15,115.61,48,114v22.66a5.4,5.4,0,0,0,5.4,5.4H96.55a5.4,5.4,0,0,0,5.4-5.4V114C99.8,115.61,96.55,118.31,85.77,125.87Z"/><path class="cls-3" d="M85.77,67.38A22.58,22.58,0,0,1,63.2,90a22.9,22.9,0,0,1-4.41-.43V61.11a5.39,5.39,0,0,1,5.39-5.4H82.52A22.46,22.46,0,0,1,85.77,67.38Z"/><path class="cls-3" d="M63.2,141.66c0,.13,0,.27,0,.4h-9.8a5.4,5.4,0,0,1-5.4-5.4v-8.14a13.56,13.56,0,0,1,1.92-.14A13.29,13.29,0,0,1,63.2,141.66Z"/><path class="cls-3" d="M145.13,88.09v15.08a13.85,13.85,0,0,1-17.55-9.68,14,14,0,0,1-.45-3.51,13.77,13.77,0,0,1,2.07-7.28h10.53A5.39,5.39,0,0,1,145.13,88.09Z"/></svg>