<svg id="Layer_1" data-name="Layer 1" xmlns="http://www.w3.org/2000/svg" xmlns:xlink="http://www.w3.org/1999/xlink" viewBox="0 0 181.44 204.73"><defs><style>.cls-1{fill:none;stroke-miterlimit:10;stroke-width:4px;stroke:url(#linear-gradient);}.cls-2{fill:#e8fc7d;}.cls-3{fill:#fff;opacity:0.1;}</style><linearGradient id="linear-gradient" x1="0.33" y1="102.49" x2="181.13" y2="102.49" gradientUnits="userSpaceOnUse"><stop offset="0" stop-color="#e8fc7d" stop-opacity="0.2"/><stop offset="1" stop-color="#e8fc7d"/></linearGradient></defs><title>icon-dashboard</title><path class="cls-1" d="M2.33,58.05v88.87A11.43,11.43,0,0,0,8,156.82l77,44.44a11.43,11.43,0,0,0,11.43,0l77-44.44a11.43,11.43,0,0,0,5.71-9.9V58.05a11.43,11.43,0,0,0-5.71-9.9l-77-44.44A11.43,11.43,0,0,0,85,3.72L8,48.15A11.43,11.43,0,0,0,2.33,58.05Z"/><circle class="cls-2" cx="173.31" cy="37.9" r="3.36" transform="translate(53.84 169.04) rotate(-60)"/><circle class="cls-2" cx="113.91" cy="5.25" r="2.42"/><circle class="cls-2" cx="6.99" cy="92.91" r="2.54"/><circle class="cls-2" cx="3.27" cy="43.84" r="1.18"/><path class="cls-2" d="M120.33,95.36a32.93,32.93,0,0,0-59.17-.07c-.42.84-.79,1.69-1.13,2.57A32.42,32.42,0,0,0,58,106.57a31.67,31.67,0,0,0-.16,3.24,32.75,32.75,0,0,0,4.47,16.56,3.61,3.61,0,0,0,3.14,1.74h50.66a3.61,3.61,0,0,0,3.14-1.74,32.92,32.92,0,0,0,1.13-31ZM65.12,113.74a2.43,2.43,0,0,1,0-.27,3.66,3.66,0,1,1,3.66,3.66H68.5A3.65,3.65,0,0,1,65.12,113.74Zm40.81-22a3.6,3.6,0,0,1,1.27-.26,3.66,3.66,0,0,1,0,7.32,3.61,3.61,0,0,1-3-1.74ZM87.07,87.85a3.66,3.66,0,0,1,3.66-3.66A3.62,3.62,0,0,1,94.2,86.9a6.08,6.08,0,0,0-.4.76l-1,3.16a3.41,3.41,0,0,1-3.41.41,3.66,3.66,0,0,1-2-2A3.59,3.59,0,0,1,87.07,87.85ZM74.26,91.51a3.66,3.66,0,1,1-3.66,3.66A3.66,3.66,0,0,1,74.26,91.51ZM98,117.13a7.24,7.24,0,0,1-1,3.66H84.43a7.29,7.29,0,0,1-1-3.23,3.09,3.09,0,0,1,0-.43,7.29,7.29,0,0,1,6.85-7.27l4.43-13.28,2.59-7.77a2.74,2.74,0,0,1,5.2,1.74L99,100.92l-3.56,10.67A7.3,7.3,0,0,1,98,117.13Zm14.64,0a3.66,3.66,0,0,1-3.66-3.66,3.59,3.59,0,0,1,.58-2,3.66,3.66,0,1,1,5,5A3.59,3.59,0,0,1,112.69,117.13Z"/><path class="cls-3" d="M123.67,109.81a32.67,32.67,0,0,1-2.7,13.06l-6.31-6.32-5-5L99,100.92l-4.34-4.34-5.35-5.35-2-2-9.68-9.68a33,33,0,0,1,27.51.64l15.15,15.16A32.69,32.69,0,0,1,123.67,109.81Z"/><path class="cls-3" d="M79.49,128.11H65.4a3.61,3.61,0,0,1-3.14-1.74,32.75,32.75,0,0,1-4.47-16.56,31.67,31.67,0,0,1,.16-3.24Z"/><polygon class="cls-3" points="93.98 128.11 90.29 128.11 60.03 97.86 61.16 95.29 93.98 128.11"/></svg>