<svg id="Layer_1" data-name="Layer 1" xmlns="http://www.w3.org/2000/svg" xmlns:xlink="http://www.w3.org/1999/xlink" viewBox="0 0 180.75 204.72"><defs><style>.cls-1{fill:none;stroke-miterlimit:10;stroke-width:4px;stroke:url(#linear-gradient);}.cls-2{fill:#96a0ff;}.cls-3{fill:#fff;opacity:0.1;}</style><linearGradient id="linear-gradient" x1="-0.11" y1="102.74" x2="180.68" y2="102.74" gradientUnits="userSpaceOnUse"><stop offset="0" stop-color="#96a0ff" stop-opacity="0.2"/><stop offset="1" stop-color="#96a0ff"/></linearGradient></defs><title>icon-ui-ux</title><path class="cls-1" d="M1.89,58.31v88.87a11.43,11.43,0,0,0,5.71,9.9l77,44.44a11.43,11.43,0,0,0,11.43,0l77-44.44a11.43,11.43,0,0,0,5.71-9.9V58.31a11.43,11.43,0,0,0-5.71-9.9L96,4A11.43,11.43,0,0,0,84.57,4L7.6,48.41A11.43,11.43,0,0,0,1.89,58.31Z"/><circle class="cls-2" cx="152.16" cy="186.37" r="2.62"/><circle class="cls-2" cx="7.51" cy="147.21" r="1.36"/><circle class="cls-2" cx="166.45" cy="30.87" r="3.7"/><circle class="cls-2" cx="54.08" cy="9.31" r="4.71"/><circle class="cls-2" cx="7.51" cy="41.14" r="3.67"/><path class="cls-3" d="M67.12,109.21,65,111.36a11.93,11.93,0,0,0-1.63,14.91,10.62,10.62,0,0,0,.8,1.1c-.57,0-1.15-.09-1.73-.17a45.4,45.4,0,0,1-11.84-3.46l6.86-20.59,1.41-4.23,2.83-2.82a2.62,2.62,0,0,1,4.48,1.74,29.92,29.92,0,0,0,.65,5.22,29.52,29.52,0,0,0,.94,3.43A2.65,2.65,0,0,1,67.12,109.21Z"/><path class="cls-2" d="M129.41,74.15,119.27,64a8.11,8.11,0,0,0-11.46,0l-9.54,9.54,21.6,21.6,9.54-9.54A8.11,8.11,0,0,0,129.41,74.15ZM95.49,79.34,94,77.84l-10.66,3L68.45,85.06a10.79,10.79,0,0,0-7.31,7l-2.3,6.89-1.41,4.23-6.86,20.59L45.4,139.25l2.48,2.47L62.41,127.2l10.8-10.8a7.94,7.94,0,0,1-.81-3.47A8.14,8.14,0,1,1,77,120.22L51.7,145.54,54.18,148l21-7,26.22-8.74a10.83,10.83,0,0,0,7-7.31l4.09-14.49,3.12-11Z"/><path class="cls-3" d="M83.38,82.18A21.42,21.42,0,0,1,66.8,103.06a20.55,20.55,0,0,1-4.87.57,20.89,20.89,0,0,1-4.5-.48l1.41-4.23L61.14,92a10.79,10.79,0,0,1,7.31-7l14.88-4.21C83.37,81.29,83.38,81.73,83.38,82.18Z"/><path class="cls-3" d="M75.17,141l-21,7-2.48-2.48,9-9a14.4,14.4,0,0,1,3.5-.42A14.76,14.76,0,0,1,75.17,141Z"/><path class="cls-3" d="M95.49,79.34l20.09,20.09-3.12,11A37.77,37.77,0,0,1,95.49,79.34Z"/><path class="cls-3" d="M129.41,85.61l-9.54,9.54-21.6-21.6L107.81,64a8.11,8.11,0,0,1,11.46,0l10.14,10.14A8.11,8.11,0,0,1,129.41,85.61Z"/></svg>