<svg id="Layer_1" data-name="Layer 1" xmlns="http://www.w3.org/2000/svg" xmlns:xlink="http://www.w3.org/1999/xlink" viewBox="0 0 180.75 204.72"><defs><style>.cls-1{fill:none;stroke-miterlimit:10;stroke-width:4px;stroke:url(#linear-gradient);}.cls-2{fill:#96a0ff;}.cls-3{fill:#fff;opacity:0.07;}</style><linearGradient id="linear-gradient" x1="-0.11" y1="102.74" x2="180.68" y2="102.74" gradientUnits="userSpaceOnUse"><stop offset="0" stop-color="#96a0ff" stop-opacity="0.2"/><stop offset="1" stop-color="#96a0ff"/></linearGradient></defs><title>icon-face</title><path class="cls-1" d="M1.89,58.31v88.87a11.43,11.43,0,0,0,5.71,9.9l77,44.44a11.43,11.43,0,0,0,11.43,0l77-44.44a11.43,11.43,0,0,0,5.71-9.9V58.31a11.43,11.43,0,0,0-5.71-9.9L96,4A11.43,11.43,0,0,0,84.57,4L7.6,48.41A11.43,11.43,0,0,0,1.89,58.31Z"/><circle class="cls-2" cx="152.16" cy="186.37" r="2.62"/><circle class="cls-2" cx="7.51" cy="147.21" r="1.36"/><circle class="cls-2" cx="166.45" cy="30.87" r="3.7"/><circle class="cls-2" cx="54.08" cy="9.31" r="4.71"/><circle class="cls-2" cx="7.51" cy="41.14" r="3.67"/><path class="cls-2" d="M107.61,64.11h10.94V45.63a146.21,146.21,0,0,0-15.94-.82C86.84,44.81,76,54.44,76,72.12V88.4H58.61v20.66H76v52H97.37v-52h16.71l2.66-20.66H97.37V74.17c0-6,1.66-10.06,10.24-10.06Z"/><circle class="cls-3" cx="65.26" cy="76.16" r="26.78"/><circle class="cls-3" cx="104.24" cy="152.63" r="18.75"/></svg>