<svg id="Layer_1" data-name="Layer 1" xmlns="http://www.w3.org/2000/svg" xmlns:xlink="http://www.w3.org/1999/xlink" viewBox="0 0 181 205.16"><defs><style>.cls-1{fill:none;stroke-miterlimit:10;stroke-width:4px;stroke:url(#linear-gradient);}.cls-2{fill:#87f7b4;}.cls-3{fill:#fff;opacity:0.2;}</style><linearGradient id="linear-gradient" x1="0.17" y1="102.94" x2="180.96" y2="102.94" gradientUnits="userSpaceOnUse"><stop offset="0" stop-color="#87f7b4" stop-opacity="0.2"/><stop offset="1" stop-color="#87f7b4"/></linearGradient></defs><title>icon-mobile</title><path class="cls-1" d="M2.17,58.5v88.87a11.43,11.43,0,0,0,5.71,9.9l77,44.44a11.43,11.43,0,0,0,11.43,0l77-44.44a11.43,11.43,0,0,0,5.71-9.9V58.5a11.43,11.43,0,0,0-5.71-9.9l-77-44.44a11.43,11.43,0,0,0-11.43,0L7.88,48.6A11.43,11.43,0,0,0,2.17,58.5Z"/><circle class="cls-2" cx="166.98" cy="53.85" r="2.02"/><circle class="cls-2" cx="16.98" cy="122.85" r="2.36"/><circle class="cls-2" cx="25.48" cy="18.18" r="1.69"/><circle class="cls-2" cx="128.15" cy="6.18" r="2.69"/><path class="cls-2" d="M111.84,56.95H72a8.54,8.54,0,0,0-8.54,8.54v74A8.54,8.54,0,0,0,72,148.06h39.86a8.54,8.54,0,0,0,8.54-8.54v-74A8.54,8.54,0,0,0,111.84,56.95ZM91.91,142.37a5.69,5.69,0,1,1,5.69-5.69A5.69,5.69,0,0,1,91.91,142.37Zm19.93-19.22a2.14,2.14,0,0,1-2.14,2.14H74.11A2.14,2.14,0,0,1,72,123.15V67.63a2.14,2.14,0,0,1,2.14-2.14H109.7a2.14,2.14,0,0,1,2.14,2.14Z"/><circle class="cls-3" cx="70.63" cy="64.16" r="18.5"/><circle class="cls-3" cx="125.38" cy="124.66" r="28.5"/></svg>