<svg id="Layer_1" data-name="Layer 1" xmlns="http://www.w3.org/2000/svg" xmlns:xlink="http://www.w3.org/1999/xlink" viewBox="0 0 181.47 204.69"><defs><style>.cls-1{fill:none;stroke-miterlimit:10;stroke-width:4px;stroke:url(#linear-gradient);}.cls-2,.cls-3{fill:#96a0ff;}.cls-3{font-size:116.98px;font-family:MyriadPro-Regular, Myriad Pro;}</style><linearGradient id="linear-gradient" x1="0.7" y1="103.35" x2="181.5" y2="103.35" gradientUnits="userSpaceOnUse"><stop offset="0" stop-color="#96a0ff" stop-opacity="0.2"/><stop offset="0.99" stop-color="#96a0ff"/></linearGradient></defs><title>icon-number-3</title><path class="cls-1" d="M2.7,58.91v88.87a11.43,11.43,0,0,0,5.71,9.9l77,44.44a11.43,11.43,0,0,0,11.43,0l77-44.44a11.43,11.43,0,0,0,5.71-9.9V58.91a11.43,11.43,0,0,0-5.71-9.9l-77-44.44a11.43,11.43,0,0,0-11.43,0L8.42,49A11.43,11.43,0,0,0,2.7,58.91Z"/><circle class="cls-2" cx="170.03" cy="76.98" r="5.29"/><circle class="cls-2" cx="5.7" cy="54.58" r="3.69"/><circle class="cls-2" cx="18.62" cy="21.35" r="3.14"/><circle class="cls-2" cx="164.74" cy="32.44" r="5.88"/><text class="cls-3" transform="translate(61.09 137.68)">3</text></svg>