<svg id="Layer_1" data-name="Layer 1" xmlns="http://www.w3.org/2000/svg" xmlns:xlink="http://www.w3.org/1999/xlink" viewBox="0 0 414.45 454"><defs><style>.cls-1{fill:url(#linear-gradient);}.cls-2{fill:url(#linear-gradient-2);}.cls-3{fill:#ff8a8a;}.cls-4{fill:#87f7b4;}.cls-5{fill:#e8fc7d;}.cls-6,.cls-7{opacity:0.1;}.cls-6{fill:url(#linear-gradient-3);}.cls-7{fill:url(#linear-gradient-4);}.cls-8{font-size:58.51px;font-family:Roboto-Bold, Roboto;font-weight:700;}.cls-10,.cls-8{fill:#8f92ce;}.cls-9{letter-spacing:-0.01em;}.cls-10{opacity:0.2;}</style><linearGradient id="linear-gradient" x1="210.18" y1="463" x2="210.18" y2="-13" gradientUnits="userSpaceOnUse"><stop offset="0" stop-color="#131541" stop-opacity="0.9"/><stop offset="0.42" stop-color="#141643" stop-opacity="0.9"/><stop offset="0.57" stop-color="#171b49" stop-opacity="0.91"/><stop offset="0.67" stop-color="#1b2355" stop-opacity="0.91"/><stop offset="0.76" stop-color="#222e65" stop-opacity="0.93"/><stop offset="0.83" stop-color="#2c3d7a" stop-opacity="0.94"/><stop offset="0.9" stop-color="#374f94" stop-opacity="0.96"/><stop offset="0.96" stop-color="#4464b2" stop-opacity="0.98"/><stop offset="1" stop-color="#5078ce"/></linearGradient><linearGradient id="linear-gradient-2" x1="-53.33" y1="27.5" x2="481.67" y2="27.5" gradientUnits="userSpaceOnUse"><stop offset="0" stop-color="#131541"/><stop offset="0.42" stop-color="#141643"/><stop offset="0.57" stop-color="#171b4a"/><stop offset="0.68" stop-color="#1c2355"/><stop offset="0.77" stop-color="#232f66"/><stop offset="0.84" stop-color="#2d3f7c"/><stop offset="0.91" stop-color="#385298"/><stop offset="0.96" stop-color="#4668b7"/><stop offset="1" stop-color="#5078ce"/></linearGradient><linearGradient id="linear-gradient-3" x1="9.24" y1="382.08" x2="204.98" y2="382.08" gradientUnits="userSpaceOnUse"><stop offset="0" stop-color="#5078ce"/><stop offset="1" stop-color="#131541"/></linearGradient><linearGradient id="linear-gradient-4" x1="217.04" y1="142.08" x2="412.78" y2="142.08" xlink:href="#linear-gradient-3"/></defs><title>icon-dragon-box</title><rect class="cls-1" x="-13.26" y="-13" width="446.87" height="476"/><rect class="cls-2" x="-53.33" y="-23.5" width="535" height="102"/><circle class="cls-3" cx="25.06" cy="37" r="6"/><circle class="cls-4" cx="52.5" cy="37" r="6"/><circle class="cls-5" cx="78.88" cy="37" r="6"/><polygon class="cls-6" points="9.24 382.08 107.11 325.57 204.98 382.08 107.11 438.58 9.24 382.08"/><polygon class="cls-7" points="217.04 142.08 314.91 85.57 412.78 142.08 314.91 198.58 217.04 142.08"/><text class="cls-8" transform="translate(88.31 266.38)">DR<tspan class="cls-9" x="75.36" y="0">A</tspan><tspan x="114.13" y="0">GON</tspan></text><circle class="cls-10" cx="101.38" cy="173.88" r="4.88"/><circle class="cls-10" cx="339.13" cy="207.63" r="3.13"/><circle class="cls-10" cx="174.38" cy="278.88" r="1.88"/><circle class="cls-10" cx="311.44" cy="277.94" r="0.94"/><circle class="cls-10" cx="72.63" cy="271.63" r="1.63"/><circle class="cls-10" cx="84.25" cy="215.25" r="1.75"/><circle class="cls-10" cx="380.44" cy="274.44" r="4.44"/></svg>