<svg id="Layer_1" data-name="Layer 1" xmlns="http://www.w3.org/2000/svg" xmlns:xlink="http://www.w3.org/1999/xlink" viewBox="0 0 181.47 204.69"><defs><style>.cls-1{fill:none;stroke-miterlimit:10;stroke-width:4px;stroke:url(#linear-gradient);}.cls-2{fill:#96a0ff;}.cls-3{fill:#fff;opacity:0.2;}</style><linearGradient id="linear-gradient" x1="0.67" y1="102.35" x2="181.46" y2="102.35" gradientUnits="userSpaceOnUse"><stop offset="0" stop-color="#96a0ff" stop-opacity="0.2"/><stop offset="0.99" stop-color="#96a0ff"/></linearGradient></defs><title>icon-game</title><path class="cls-1" d="M2.67,57.91v88.87a11.43,11.43,0,0,0,5.71,9.9l77,44.44a11.43,11.43,0,0,0,11.43,0l77-44.44a11.43,11.43,0,0,0,5.71-9.9V57.91a11.43,11.43,0,0,0-5.71-9.9l-77-44.44a11.43,11.43,0,0,0-11.43,0L8.39,48A11.43,11.43,0,0,0,2.67,57.91Z"/><circle class="cls-2" cx="170.03" cy="76.98" r="5.29"/><circle class="cls-2" cx="5.7" cy="54.58" r="3.69"/><circle class="cls-2" cx="18.62" cy="21.35" r="3.14"/><circle class="cls-2" cx="164.74" cy="32.44" r="5.88"/><path class="cls-2" d="M130.28,91.88a21,21,0,0,0-18.2-10.53h-42a21,21,0,1,0,15,35.7h12a21,21,0,0,0,8.53,5.28,20.67,20.67,0,0,0,6.47,1,21,21,0,0,0,18.21-31.47Zm-56,21.5a1.58,1.58,0,0,1-1.57,1.57H67.45a1.58,1.58,0,0,1-1.58-1.57v-6.83H59A1.58,1.58,0,0,1,57.47,105V99.73A1.58,1.58,0,0,1,59,98.15h6.82V91.32a1.58,1.58,0,0,1,1.58-1.57H72.7a1.58,1.58,0,0,1,1.57,1.57v6.83H81.1a1.58,1.58,0,0,1,1.57,1.58V105a1.58,1.58,0,0,1-1.57,1.57H74.27ZM117.33,90.8a6.3,6.3,0,0,1,6.3,6.3,6.16,6.16,0,0,1-.71,2.9,6.3,6.3,0,1,1-5.59-9.2Zm-16.8,16.8a6.3,6.3,0,1,1,6.3,6.3A6.3,6.3,0,0,1,100.53,107.6Z"/><path class="cls-3" d="M88.72,90.46a25,25,0,0,1-14.45,22.66v-6.57H81.1A1.58,1.58,0,0,0,82.67,105V99.73a1.58,1.58,0,0,0-1.57-1.58H74.27V91.32a1.58,1.58,0,0,0-1.57-1.57H67.45a1.58,1.58,0,0,0-1.58,1.57v6.83H59a1.58,1.58,0,0,0-1.58,1.58V105A1.58,1.58,0,0,0,59,106.55h6.82v6.83a1.58,1.58,0,0,0,1.58,1.57h1.31a25,25,0,0,1-17.19-2.64,21,21,0,0,1,18.5-31H87A24.81,24.81,0,0,1,88.72,90.46Z"/><path class="cls-3" d="M130.28,91.88a17.33,17.33,0,0,1-7.36,8.12,6.16,6.16,0,0,0,.71-2.9,6.3,6.3,0,1,0-12.6,0,6.24,6.24,0,0,0,2.6,5.09,17.26,17.26,0,0,1-16-20.84h14.48A21,21,0,0,1,130.28,91.88Z"/><path class="cls-3" d="M125.58,118.43a20.91,20.91,0,0,1-13.51,4.92,20.67,20.67,0,0,1-6.47-1,13.26,13.26,0,0,1,20-3.9Z"/></svg>