<svg id="Layer_1" data-name="Layer 1" xmlns="http://www.w3.org/2000/svg" xmlns:xlink="http://www.w3.org/1999/xlink" viewBox="0 0 180.75 204.72"><defs><style>.cls-1{fill:none;stroke-miterlimit:10;stroke-width:4px;stroke:url(#linear-gradient);}.cls-2{fill:#ff8a8a;}.cls-3{fill:#fff;opacity:0.1;}</style><linearGradient id="linear-gradient" x1="-0.11" y1="102.74" x2="180.68" y2="102.74" gradientUnits="userSpaceOnUse"><stop offset="0" stop-color="#ff8a8a" stop-opacity="0.2"/><stop offset="1" stop-color="#ff8a8a"/></linearGradient></defs><title>icon-web</title><path class="cls-1" d="M1.89,58.31v88.87a11.43,11.43,0,0,0,5.71,9.9l77,44.44a11.43,11.43,0,0,0,11.43,0l77-44.44a11.43,11.43,0,0,0,5.71-9.9V58.31a11.43,11.43,0,0,0-5.71-9.9L96,4A11.43,11.43,0,0,0,84.57,4L7.6,48.41A11.43,11.43,0,0,0,1.89,58.31Z"/><circle class="cls-2" cx="152.16" cy="186.37" r="2.62"/><circle class="cls-2" cx="7.51" cy="147.21" r="1.36"/><circle class="cls-2" cx="166.45" cy="30.87" r="3.7"/><circle class="cls-2" cx="54.08" cy="9.31" r="4.71"/><circle class="cls-2" cx="7.51" cy="41.14" r="3.67"/><path class="cls-2" d="M125,68a25,25,0,0,0-35.27,0L87,70.74l-8.31,8.32s0,0-.06.06c-.24.24-.47.48-.69.73a24.91,24.91,0,0,0,.75,34.48,24.52,24.52,0,0,0,2.79,2.4q.29.23.57.42a2.64,2.64,0,0,0,3.38-.29l3.45-3.45a6.52,6.52,0,0,0,1.92-4.89,2.62,2.62,0,0,0-1.14-2.07,12.15,12.15,0,0,1-1.69-1.4,11.81,11.81,0,0,1,0-16.71l11-11a11.81,11.81,0,1,1,16.6,16.81l-1.48,1.47-.67.67a2.67,2.67,0,0,0-.62,2.73,30.41,30.41,0,0,1,1.59,8.65,2.62,2.62,0,0,0,4.48,1.74l5.76-5.76.33-.33A25,25,0,0,0,125,68ZM101.86,91.16a24.48,24.48,0,0,0-3.36-2.82,2.63,2.63,0,0,0-3.38.28l-3.45,3.46A6.51,6.51,0,0,0,89.76,97,2.6,2.6,0,0,0,90.9,99a12.17,12.17,0,0,1,1.69,1.41,11.81,11.81,0,0,1,0,16.71l-11,11a11.84,11.84,0,0,1-16.79-.08,8.68,8.68,0,0,1-.64-.72,11.93,11.93,0,0,1,.83-16l2.15-2.15a2.65,2.65,0,0,0,.62-2.72,30.19,30.19,0,0,1-1.59-8.65,2.62,2.62,0,0,0-4.48-1.74l-6.09,6.08a24.94,24.94,0,1,0,35.27,35.27l11-11a.17.17,0,0,0,.06-.06A24.91,24.91,0,0,0,101.86,91.16Z"/><path class="cls-3" d="M67.73,106.49a2.65,2.65,0,0,1-.62,2.72L65,111.36a11.93,11.93,0,0,0-.83,16C59,127,53.53,125.16,48.47,122.8a24.9,24.9,0,0,1,7.11-20.62l6.09-6.08a2.62,2.62,0,0,1,4.48,1.74A30.19,30.19,0,0,0,67.73,106.49Z"/><path class="cls-3" d="M78,79.85c2.16,10.69,7.47,26.09,3.54,36.88a24.52,24.52,0,0,1-2.79-2.4A24.91,24.91,0,0,1,78,79.85Z"/><path class="cls-3" d="M125,103.3l-.33.33a91.26,91.26,0,0,1-10.54-8c-6-5.17-11.92-11.11-17.23-16.17A114.59,114.59,0,0,0,87,70.74L89.73,68A24.94,24.94,0,1,1,125,103.3Z"/></svg>