<svg id="Layer_1" data-name="Layer 1" xmlns="http://www.w3.org/2000/svg" viewBox="0 0 180.75 204.72"><defs><style>.cls-1{fill:#fff;opacity:0.1;}.cls-2,.cls-5{fill:#96a0ff;}.cls-3{fill:#87f7b4;}.cls-4{fill:#ff8a8a;}.cls-5{opacity:0.2;}</style></defs><title>icon-css</title><circle class="cls-1" cx="78.2" cy="37.47" r="14.77"/><circle class="cls-1" cx="125.25" cy="110.29" r="14.77"/><circle class="cls-1" cx="125.25" cy="104.78" r="14.77"/><circle class="cls-1" cx="49.37" cy="154.84" r="40.93"/><circle class="cls-1" cx="49.37" cy="155.89" r="40.93"/><circle class="cls-1" cx="58.79" cy="30.87" r="25.56"/><circle class="cls-2" cx="174.65" cy="196.82" r="2.62"/><circle class="cls-3" cx="17.14" cy="114.97" r="1.36"/><circle class="cls-4" cx="153.45" cy="76.04" r="3.7"/><circle class="cls-2" cx="18.5" cy="86.69" r="4.71"/><circle class="cls-2" cx="90.37" cy="14.02" r="3.67"/><path class="cls-1" d="M75.17,141l-21,7-2.48-2.48,9-9a14.4,14.4,0,0,1,3.5-.42A14.76,14.76,0,0,1,75.17,141Z"/><path class="cls-5" d="M26.64,21.36,37.5,165.15l39.78,15.44,9.1,3.53,48.88-19,3.54-46.88,7.32-96.91Zm90.67,117.46L86.75,149.24l-19.2-6.63-11.54-4-2-26.84H69.24l1,13.91,4.1,1.21,12.27,3.62,17-5.59.85-16.6.3-5.78L53,102.38v0l-.07,0L51.84,85.56l34.88-17,2-1H50.51L48.7,50.42h75.36l-1.49,17.19L86.69,85.52l-.09,0h34.69l-1.74,23.31Z"/><circle class="cls-1" cx="31.21" cy="27.39" r="14.77"/><path class="cls-1" d="M86.6,130.53l-12.27-3.62a43.9,43.9,0,0,1,30.14-18.57l-.85,16.6Z"/><path class="cls-1" d="M154.4,151.84a43.92,43.92,0,1,1-86.85-9.23l19.2,6.63,30.56-10.42,2.24-30a43.91,43.91,0,0,1,34.85,43Z"/></svg>