<svg id="Layer_1" data-name="Layer 1" xmlns="http://www.w3.org/2000/svg" viewBox="0 0 180.75 204.72"><defs><style>.cls-1,.cls-4{fill:#96a0ff;}.cls-1{opacity:0.2;}.cls-2{fill:#87f7b4;}.cls-3{fill:#ff8a8a;}.cls-5{fill:#e8fc7d;}.cls-6{fill:#fff;opacity:0.1;}</style></defs><title>icon-store</title><path class="cls-1" d="M82.84,62.06,44.7,23.81,93.23,51.67,82.84,62.06ZM34.75,21.57A6.72,6.72,0,0,0,31,27.67v76.26a6.72,6.72,0,0,0,3.75,6.1L79.09,65.79Zm73.48,39L98.05,54.66,86.7,65.81,98.05,77l10.39-5.89a6.93,6.93,0,0,0-.21-10.51ZM44.7,107.8,93.23,79.95,82.84,69.56Z"/><path class="cls-1" d="M153.92,108.36H94.75a8.07,8.07,0,0,0-8.07,8.07V175.6a8.07,8.07,0,0,0,8.07,8.07h59.16A8.07,8.07,0,0,0,162,175.6V116.43A8.07,8.07,0,0,0,153.92,108.36ZM108,167.61a3.36,3.36,0,0,1-5.82-3.36l2.4-4.15a5.77,5.77,0,0,1,6.66,1.92Zm23.35-9.06H100.8a3.36,3.36,0,1,1,0-6.72h8.57l11-19-3.45-6a3.36,3.36,0,0,1,5.82-3.36l1.5,2.59,1.5-2.59a3.36,3.36,0,1,1,5.82,3.36l-14.42,25h10.44c3.4,0,5.29,4,3.82,6.72Zm16.49,0H143l3.29,5.7a3.36,3.36,0,0,1-5.82,3.36q-8.29-14.35-12.44-21.53c-2.81-4.87-.81-9.75,1.19-11.4q3.3,5.72,9.9,17.14h8.74a3.36,3.36,0,0,1,0,6.72Z"/><rect class="cls-2" x="4.26" y="84.78" width="7.46" height="7.46" rx="0.19" ry="0.19"/><rect class="cls-3" x="12.17" y="191.72" width="5.56" height="5.56" rx="0.19" ry="0.19" transform="translate(124.45 355.94) rotate(150.24)"/><rect class="cls-4" x="137.62" y="96.49" width="4.25" height="4.25" rx="0.19" ry="0.19"/><rect class="cls-5" x="161.99" y="27.47" width="3.54" height="3.54" rx="0.19" ry="0.19"/><rect class="cls-4" x="62.08" y="5.23" width="5.41" height="5.41" rx="0.19" ry="0.19" transform="translate(13.37 48.13) rotate(-45)"/><circle class="cls-6" cx="78.2" cy="108.36" r="42.64"/></svg>