<svg id="Layer_1" data-name="Layer 1" xmlns="http://www.w3.org/2000/svg" viewBox="0 0 180.75 128"><defs><style>.cls-1{font-size:202.17px;font-family:Roboto-Bold, Roboto;font-weight:700;}.cls-1,.cls-7{fill:#fff;}.cls-2,.cls-6{fill:#96a0ff;}.cls-3{fill:#87f7b4;}.cls-4{fill:#ff8a8a;}.cls-5{fill:#e8fc7d;}.cls-6{opacity:0.2;}.cls-7{opacity:0.1;}</style></defs><title>icon-dragon</title><text class="cls-1" transform="translate(33.74 -47.46)">3</text><circle class="cls-2" cx="51.98" cy="34" r="2.62"/><circle class="cls-3" cx="17.14" cy="123.14" r="1.36"/><circle class="cls-4" cx="159.37" cy="77.79" r="3.7"/><circle class="cls-2" cx="17.58" cy="8.71" r="5.79"/><circle class="cls-5" cx="80.27" cy="24.61" r="1.48"/><circle class="cls-5" cx="83.35" cy="117.09" r="0.92"/><circle class="cls-2" cx="163.04" cy="22.46" r="3.67"/><path class="cls-6" d="M27.38,59.69l33.51-6.14L43.28,66.8a3.09,3.09,0,0,0,2.18,5.27h43A47.72,47.72,0,0,1,85.58,56V47.82l-23.1-16.9a12.35,12.35,0,0,0-14.87.89L25,54.26A3.09,3.09,0,0,0,27.38,59.69Zm107.45,6.58L115.4,56.56a9.26,9.26,0,0,1-5.12-8.28V41.2h12.35l5.42,4.37a6.17,6.17,0,0,0,4.37,1.81h6A6.17,6.17,0,0,0,143.91,44l2.76-5.52a6.18,6.18,0,0,0-.58-6.47L131.71,12.8a6.17,6.17,0,0,0-4.94-2.46H81A1.54,1.54,0,0,0,79.87,13l11.89,9.71-11.5,4.79a1.54,1.54,0,0,0,0,2.76L91.76,35V56a41.6,41.6,0,0,0,18.52,34.61C72.54,91.91,43.8,98.5,26.52,102.34a3.43,3.43,0,0,0,.74,6.78h96.3c12.21,0,23.08-9.18,23.73-21.37a22.52,22.52,0,0,0-12.47-21.49Zm-16.6-43.15,8.81,2.2a4.57,4.57,0,0,1-4.66,3.52,4.5,4.5,0,0,1-4.15-5.72Z"/><circle class="cls-7" cx="41.96" cy="55.47" r="21.47"/><circle class="cls-7" cx="109.12" cy="101.1" r="7.63"/><circle class="cls-7" cx="128.46" cy="52.59" r="15.97"/><circle class="cls-7" cx="156.22" cy="58.6" r="6.86"/><circle class="cls-7" cx="140.59" cy="69.48" r="6.86"/><circle class="cls-7" cx="73.58" cy="8.65" r="10.15"/></svg>